<?xml version="1.0" encoding="utf-8"?>
<!-- Generator: Adobe Illustrator 26.0.1, SVG Export Plug-In . SVG Version: 6.00 Build 0)  -->
<svg version="1.1" id="Layer_1" xmlns="http://www.w3.org/2000/svg" xmlns:xlink="http://www.w3.org/1999/xlink" x="0px" y="0px"
	 viewBox="0 0 682 614" style="enable-background:new 0 0 682 614;" xml:space="preserve">
<style type="text/css">
	.st0{fill-rule:evenodd;clip-rule:evenodd;fill:url(#SVGID_1_);}
	.st1{fill-rule:evenodd;clip-rule:evenodd;fill:url(#SVGID_00000102536919727246612290000011669368208325184406_);}
	.st2{opacity:0.5;}
	.st3{fill-rule:evenodd;clip-rule:evenodd;fill:#C4B0B8;}
	.st4{opacity:0.63;}
	.st5{opacity:0.47;}
	.st6{fill-rule:evenodd;clip-rule:evenodd;fill:#14AD86;}
	.st7{fill:#B8E0D5;}
	.st8{fill-rule:evenodd;clip-rule:evenodd;fill:#A3D1C4;}
	.st9{fill-rule:evenodd;clip-rule:evenodd;fill:url(#SVGID_00000028322659153373153120000005578407497288306089_);}
	.st10{fill-rule:evenodd;clip-rule:evenodd;fill:#336355;}
	.st11{fill-rule:evenodd;clip-rule:evenodd;fill:#53345F;}
	.st12{fill-rule:evenodd;clip-rule:evenodd;fill:#D9D9D9;}
	.st13{fill:url(#SVGID_00000134964311750180258080000016005541400751168392_);}
	.st14{fill-rule:evenodd;clip-rule:evenodd;fill:url(#SVGID_00000006688301349522732910000010370165019574582435_);}
	.st15{fill-rule:evenodd;clip-rule:evenodd;fill:#311745;}
	.st16{fill-rule:evenodd;clip-rule:evenodd;fill:url(#SVGID_00000105401726304642853780000004867803735200029845_);}
	.st17{fill-rule:evenodd;clip-rule:evenodd;fill:#ABD3C7;}
	.st18{fill-rule:evenodd;clip-rule:evenodd;fill:url(#SVGID_00000082347898251509210770000007178015834016535472_);}
	.st19{fill-rule:evenodd;clip-rule:evenodd;fill:url(#SVGID_00000132776802008280809340000006193215240138729650_);}
	.st20{fill:url(#SVGID_00000164475886095318034090000004364590719440490125_);}
	.st21{fill:url(#SVGID_00000058566853745129367620000017923747871896226960_);}
	.st22{fill:url(#SVGID_00000058584672238155617370000005310651367023264436_);}
	.st23{fill:#53345F;}
	.st24{fill-rule:evenodd;clip-rule:evenodd;fill:url(#SVGID_00000113331073718441089750000000217867086698769324_);}
	.st25{fill-rule:evenodd;clip-rule:evenodd;fill:url(#SVGID_00000173131782351327548430000004052127598257846412_);}
	.st26{fill:url(#SVGID_00000126295319539982472640000011280191661564892849_);}
	.st27{fill-rule:evenodd;clip-rule:evenodd;fill:url(#SVGID_00000113339253971912780780000002467893020576686223_);}
	.st28{fill-rule:evenodd;clip-rule:evenodd;fill:url(#SVGID_00000063594302719864550920000016603440301076650138_);}
	.st29{fill-rule:evenodd;clip-rule:evenodd;fill:#387261;}
	.st30{fill-rule:evenodd;clip-rule:evenodd;fill:#A0D8C8;}
	.st31{fill-rule:evenodd;clip-rule:evenodd;fill:url(#SVGID_00000165940902808451890140000012359210426231894158_);}
	.st32{fill-rule:evenodd;clip-rule:evenodd;fill:url(#SVGID_00000007416329465300855910000014710433588582077336_);}
	.st33{fill:#FFFFFF;}
	.st34{fill:url(#SVGID_00000060006745507501986680000002797061048067267461_);}
	.st35{fill-rule:evenodd;clip-rule:evenodd;fill:url(#SVGID_00000054256907960752399360000000255916797415618952_);}
	.st36{fill-rule:evenodd;clip-rule:evenodd;fill:url(#SVGID_00000134252116858514082760000010597561694326302338_);}
	.st37{fill-rule:evenodd;clip-rule:evenodd;fill:url(#SVGID_00000163792616247692604720000011470529560656343973_);}
</style>
<g>
	<g>
		
			<radialGradient id="SVGID_1_" cx="-6115.7612" cy="4613.4624" r="0.9999" gradientTransform="matrix(276.007 0 0 -275.972 1688268.875 1273462.375)" gradientUnits="userSpaceOnUse">
			<stop  offset="0.81" style="stop-color:#008BC4"/>
			<stop  offset="0.9792" style="stop-color:#000000;stop-opacity:0"/>
		</radialGradient>
		<path class="st0" d="M552,276c0,152.4-123.6,275.9-276,275.9c-40.6,0.1-80.6-8.9-117.3-26.1c-7-3.3-13.9-6.9-20.6-10.8
			c-26.7-15.4-50.7-35.3-70.8-58.6c-7.4-8.5-14.2-17.4-20.4-26.7c-8.6-12.7-16-26.1-22.3-40.1C8.3,354,0,315.2,0,276
			C0,236.7,8.4,197.9,24.6,162.1c5-11.1,10.8-21.8,17.3-32.1c13.9-22.3,30.9-42.4,50.5-59.9C142.8,24.9,208.2-0.1,276,0
			c22.1,0,44,2.6,65.5,7.8c28.8,7,56.3,18.6,81.3,34.4c4.8,3,9.5,6.2,14.1,9.5c3.8,2.8,7.6,5.6,11.3,8.6
			c18.1,14.4,34.3,31.1,48.3,49.6c29.8,39.4,48.4,86.2,53.8,135.4C551.5,255.6,552,265.8,552,276z"/>
		
			<radialGradient id="SVGID_00000103241712636032839830000002494692201318050731_" cx="-6120.5649" cy="4616.6025" r="1" gradientTransform="matrix(352.047 0 0 -352.003 2154947.75 1625250)" gradientUnits="userSpaceOnUse">
			<stop  offset="5.327789e-09" style="stop-color:#14AD86"/>
			<stop  offset="0.4244" style="stop-color:#14AD86"/>
			<stop  offset="0.9455" style="stop-color:#000000"/>
			<stop  offset="1" style="stop-color:#14AD86"/>
		</radialGradient>
		<path style="fill-rule:evenodd;clip-rule:evenodd;fill:url(#SVGID_00000103241712636032839830000002494692201318050731_);" d="
			M532,276c0,141.4-114.7,256-256.1,256c-37.6,0.1-74.8-8.2-108.9-24.3c-6.5-3-12.9-6.4-19.1-10c-24.8-14.3-47-32.7-65.7-54.4
			c-6.8-7.9-13.1-16.1-18.9-24.8c-7.9-11.8-14.9-24.2-20.7-37.2c-15-33.1-22.7-69.1-22.7-105.4c-0.1-36.4,7.7-72.5,22.8-105.6
			c4.7-10.3,10-20.3,16-29.8c12.9-20.7,28.7-39.4,46.9-55.6C152.4,43.1,213.1,19.9,276,20c20.5,0,40.9,2.4,60.8,7.3
			c26.7,6.5,52.2,17.3,75.4,31.9c4.5,2.8,8.8,5.8,13.1,8.9c3.6,2.6,7.1,5.3,10.5,8c16.8,13.4,31.8,28.9,44.7,46.1
			c27.7,36.6,44.9,80,49.9,125.6C531.5,257.1,532,266.5,532,276z"/>
		<g class="st2">
			<g class="st2">
				<path class="st3" d="M530.5,247.6c-0.9,1.6-1.7,3.4-2.3,5.1c-1,2.6-2.2,5-3.6,7.3c-1.5,3-2.8,6.2-4,9.3
					c-3,6.9-5.2,14.4-7.6,21.5c-2.8,7.9-5.4,15.8-8.7,23.5c-1.5,3.5-3.7,6.6-5.3,10c-1.5,3.4-3.1,6.7-4.9,10
					c-4.7,8-8.9,16.2-13.8,24.1c-8.9,14.2-19.6,26.8-29.9,39.9c-5.3,6.6-11.4,12.3-17.4,18.3c-6.8,6.7-12.7,14.2-19.8,20.7
					c-5.4,5.3-11.1,10.2-17.3,14.5c-3.5,2.3-6.9,4.9-10.5,7.2c-4.5,2.9-9.8,4.6-14.7,7c-16,7.7-33.2,12.5-50.1,18
					c-16.5,5.3-32.5,12.5-49.3,16.7c-3.5,0.9-7,1.2-10.5,1.9c-3.8,0.8-7.4,1.8-11.3,2.3c-7.8,0.9-15.2,3.5-23.1,4
					c-5.5,0.3-10.5-0.8-15.9-1.1c-6.9-0.1-13.7,0.2-20.5,0.9c-7.6,0.5-15.2,0.2-22.7-0.9c-6.5-3-12.9-6.4-19.1-10l0.7,0.2
					c4.5,1.4,8.6,4,13.1,5c4.8,1.1,9.8,1.9,14.7,2.7c6.5,1.1,13.1,1.2,19.6,0.1c3.5-0.6,7-1,10.4-1.7c3.8-0.8,7.6,0.2,11.3-0.7
					c5.3-1.3,11-0.3,16.4-0.5c9.2-0.3,18.2-3.7,27.1-5.5c9.9-2,19.2-5.6,29.3-6.8c5.7-0.7,10.2-2.6,15.7-4.3c4.7-1.4,7.6-4,11.5-7
					c7.5-5.6,15-11.3,23.7-14.9c8.7-3.5,17.8-6.2,27-7.9c8-1.5,15.4-5.1,21.6-10.3c2.6-2.3,5-4.7,7.5-7.1c3.2-2.7,6.3-5.5,9.2-8.6
					c3.2-3.6,6.8-6.9,9.9-10.5c3.5-4,6.3-8.5,9.7-12.6c5.5-6.4,13.8-9.8,19.2-16.3c1.1-1.3,1.9-3,3.1-4.3c1.2-1.3,2.5-2.1,3.3-3.8
					c0.9-2.1,3.1-7.1,1.9-9.5c-2.4-4.9-15.2,7.6-17.2,9.6c-3.2,3-5.8,6-9.6,8.2c-2.2,1.4-4.6,2.7-7,3.7c-4.1,1.7-8.8,1.8-13.1,2.8
					c-11.9,2.6-24.1,4-36.2,5.8c-16.3,2.5-32.8,5.9-48.9,9.9c-15,3.7-29.9,7.9-44.9,11.5c-8,1.9-16,4-24,5.7
					c-9.8,2.2-19.4,5.2-29.2,7.1c-16.2,2.9-32.5,6.5-49,7c-13,0.3-25.8,1-38.8,1c-17.5,0-36.2,1.8-53.3-2.3c-0.2,0-0.4-0.1-0.6-0.2
					c-6.8-7.9-13.1-16.1-18.9-24.8c6.3,2.8,12.8,4.9,19.6,6.1c4.9,0.9,10.1,2,14.2,4.9c2.5,2.1,5.4,3.7,8.5,4.8
					c11.2,3.6,21.1,3.4,32.3,0.1c4.2-1.2,8.3-2.5,12.4-3.9c3-1,5.8-2.8,8.9-3.7c8.6-2.3,17.6-3.9,26.3-5.9c4.1-0.9,8.5-1.7,12.5-3
					c4.6-1.4,8.9-3.8,13.3-5.6c8.4-3.5,16.3-7,25.3-8.6c5.7-0.9,12.3-1.6,17.5-4.3c1.7-0.8,4.2-2,4-4.3c-0.3-2.8-4-2-6-1.7
					c-5.8,1-11.8,1.5-17.6,3.1c-10.2,2.7-20.7,4.3-31.3,4.8c-15.9,1.1-32.1,2-48,1.2c-12.7-0.6-25.4-1.8-38-1.7
					c-12.2,0.1-24.1-0.9-35.8-4.8c-13.1-4.3-26.5-8.3-38.7-14.9c-15-33.1-22.7-69.1-22.7-105.4c-0.1-36.4,7.7-72.5,22.8-105.6
					c-1.7,4.7-3.1,9.5-5.1,14c-3.9,8.7-6.1,18.1-6.2,27.7c0.2,3.7,0.2,7.5-0.1,11.2c-0.6,4.7-1,7.8,0.3,12.6c1,3.5,1.3,6.9,2.9,10.3
					c0.5,1.1,1.2,2,2,2.8c0.8,1.1,1.4,2.2,2,3.4c2.1,3.4,5,7.9,8.6,9.9c2.4,1.2,4.9,2.1,7.5,2.8c3,0.9,4.2,1.2,7.2,0.1
					c2.4-1,5-1.6,7.6-2c1.4,0.2,2.8,0.5,4.2,0.9c1.8,0.3,3.6,0.1,5.4,0.5c7.5,1.6,14.9,3.4,22.6,3.3c6.1-0.1,12,0.9,18.2,0.9
					c7.4,0,14.7,0.2,22-0.7c4.9-0.6,10.3-1.9,15.2-2.2c4.9-0.3,10.2,0.1,15.2,0.1c17.5-0.3,35.6-4.5,50.8-13.3
					c8.1-4.8,16.8-8.5,25.9-11.1c11.7-3.4,23.6-6.7,35.6-8.9c11.1-2.2,21.9-5.6,32.2-10.4c4.5-2.1,8.9-4.7,13-7.6
					c3.8-2.6,7.9-4.5,11.5-7.2c10.5-7.8,19.8-16.9,29-26.3c5.3-5.3,10.6-10.5,16.1-15.6c4.5-4.2,9.4-6,15.2-7.4
					c9.3-2.2,14.5-12.7,19.5-20.2c6.3-9.4,11.6-20.3,11.9-31.9c0.2-4.8-0.2-9.6-1.1-14.3c-0.3-2.1-0.9-4.2-1.8-6.1
					c-0.7-1.2-1.4-2.5-1.8-3.8c-0.3-1.1-0.3-2.3-0.5-3.3s-0.8-2-1-2.9c-0.5-2.2-1.6-5.2-1.5-7.6V68c3.6,2.6,7.1,5.3,10.5,8
					c0.1,1,0,2-0.1,3c-0.2,1.2-0.6,2.2-0.9,3.4c-0.3,1.8-1,2.8-0.9,4.7c-0.1,1.9,0.1,3.9,0.4,5.8c1.2,4.7,4.3,9.1,4.3,14.2
					c-0.1,5.1-1.3,10.1-3.3,14.7c-1.8,4.5-3.8,8.7-5.9,13c-1.4,2.9-3.1,5.6-5,8.1c-1.9,2.3-3.7,4.8-5.3,7.4
					c-1.1,2.1-2.2,4.2-3.1,6.4c-1.7,4-4.3,6-7.3,9c-6.2,6-13.9,10.8-20.5,16.5c-5.4,4.5-10.4,9.6-14.7,15.2
					c-1.9,2.6-11.5,10.1-8.9,14.1c1.2,1.7,4.8,1.2,6.5,1.2c3.8,0,7.5-0.9,11-2.5c9.4-4.3,18.7-9.3,28.6-12.2c4.4-1.3,9.2-2,13.4-4
					c5.1-2.4,10-5.1,14.7-8.1c3.7-2.3,5.9-5.3,8.7-8.6c1.6-1.9,3.8-2.9,5.5-4.7c2-2,3.3-4.4,5.6-6.2c5.5-4.4,10.4-9.6,14.4-15.5
					c3.7-5.3,5-11.9,6.6-17.9c0.5-1.5,0.9-3.1,1.1-4.7c0.1-2,0-4.1,0-6.2V122C508.3,158.6,525.5,202,530.5,247.6z"/>
			</g>
			<g class="st2">
				<path class="st3" d="M413.8,80.8c-1,5.8-1.5,11.5-2.6,17.3c-1.1,5.8-1.4,12.2-3.8,17.6c-4,9.2-5.2,19.5-11.4,27.6
					c-2.6,3.5-4.7,7.2-8.1,10.1c-1.3,0.9-2.6,1.6-4.1,2.2c-1.3,0.9-2.7,2.2-4,3.1c-6.7,4.9-13.8,10-19.8,15.8
					c-6.4,6.3-12.4,12.4-20,17.3c-2.3,1.5-4.6,2.5-7,3.8c-1.8,1.2-3.7,2.3-5.7,3.2c-2.4,0.7-4.6,1.8-6.7,3.2
					c-1.8,1.4-3.8,2.5-5.9,3.4c-3.6,1.4-7.1,3.1-10.7,4.5c-1.7,0.7-3.4,1.1-5.1,1.6c-4.8,1.8-8.3,1.7-14.5,2.1
					c-2-0.9-0.3-0.9,1.3-1.6c1-0.5,1.9-1.1,2.6-2c1.3-1.4,2.8-2.8,4.4-4c2.7-2,6.3-2.9,9.2-4.7c3.7-2.3,7.4-5.2,11-7.7
					c3.1-2.1,5.4-5.4,7.9-8.1c2.7-2.9,6-5.4,9-8.1c3.5-3.1,6.4-6.6,10-9.6c3.6-3.1,6.6-6.8,8.8-11.1c1-1.8,2.6-3.1,3.6-5
					c1.1-1.7,2-3.4,2.9-5.2c0.9-2.1,2-4.2,2.9-6.2c1.1-2.4,1-5.3,1.5-7.8c1.6-7.5,3.1-15.1,4.5-22.7c1-6.4,1.5-12.9,1.4-19.5
					c0.2-6.2,2-12.2,2-18.5c0.2-2.3-0.1-4.6-0.9-6.7c-1.3-2.9-2.8-5.5-3.8-8.6c-3.2-9.4-9.2-17.6-17.1-23.6c-1.2-0.9-5-3.2-8.8-5.9
					c26.7,6.5,52.2,17.3,75.4,31.9C414.3,66.2,414.8,73.6,413.8,80.8z"/>
			</g>
			<g class="st2">
				<path class="st3" d="M339.6,81.2c-0.6,3.2-2.5,5.7-3.4,8.8c-1,3.5-1.8,7.1-2.3,10.7c-0.8,5.5-0.3,11-0.9,16.5
					c-1.4,10.4-4.5,20.6-9.2,30c-4.6,9.4-12.5,17.1-21.1,22.9c-8.9,6.1-18.8,10.7-28.5,15.2c-5.5,2.5-11.4,3.6-17,5.7
					c-4.7,1.8-9.4,3.8-14.1,5.6c-4.7,1.8-9,5-13.6,6.5c-2.9,0.9-5.8,1.9-8.7,3c-5,1.8-9.5,4.4-14.4,6.5c-6.9,3-14,5.3-21.2,7
					c-7.2,1.7-14.2,0.6-21.4-0.3c-6.1-0.6-12.1-1.4-18.1-2.6c-11-2.6-22.8-1.9-33.9-1.9c-8.5,0-18.3,0.8-25.8-3.8
					c-2.1-1.3-4.5-2.7-5.7-5c-1.5-2.8-1.7-6.3-2.3-9.3c-1.3-6.2-7.2-10.4-11.3-15c-5.3-6-7.3-13.5-8.3-21.2
					c-1-6.6-0.9-13.4,0.5-19.9c12.9-20.7,28.7-39.3,46.9-55.5c-4.3,8.1-7.5,16.8-11.3,25.2c-5.7,12.6-10.7,26.3-10.2,40.3
					c0.2,5.5,0.6,11.7,3.6,16.5c2.3,3.7,6,6.4,9.6,8.6c5.9,3.5,11.9,7.5,18.2,9.9c7.2,2.8,14.4,5.4,21.6,8.1c4.2,1.6,8.2,3.4,12.7,4
					c5.6,0.4,11.1,0.5,16.7,0.1c19.7-0.5,37.9-9.8,56.4-15.3c6-1.8,12.1-2.6,18-4.6c3.5-1.3,7-2.9,10.3-4.7
					c8.2-4.3,17.2-7.5,25-12.8c7.7-5.3,14.7-11.7,20.7-18.9c4.6-5.5,6.7-11,8.9-17.8c4.4-13.3,6.1-26.2,7.3-40.1
					c0.5-5.9,2.6-11.2,4-16.9c0.9-3.8,0.4-8.2-2.6-10.9c-6.1-5.4-15.1-8.7-22.9-10.5c-4.7-1.1-9.2-2.6-14.2-2.6c-4.9,0-9.6,0-14.4,0
					s-9.1-1-13.8-1c-5.5,0-10.5,1.5-15.9,2c-5.6,0.4-11.3,1.1-16.8,2.1c-6.6,1.2-13,3.8-19.4,5.7c-12.8,3.8-24.8,9.8-35.4,17.9
					c-2.6,2-5.5,3.7-8.3,5.5c-2.4,1.6-3.3,3.5-4.8,5.9c-3.1,4.8-5.4,10.1-6.8,15.6c-0.8,4-1.1,8.1-0.9,12.2
					c-0.1,5.5-0.6,11.1-1.6,16.5c-1.3,7.7-8.7,19.1-0.6,25.2c1.1,0.8,2.4,1.4,3.8,1.7c1.4,0.3,2.8,0.4,4.1,0.1
					c4.2-0.7,8.3-1.6,12.3-2.9c11.3-3.2,23.1-6.9,34.7-8.4c3.5-0.4,6.9-0.2,10.4-1.1c2.2-0.6,4.3-1.3,6.5-1.7
					c5.1-0.9,10.3-4.3,14.3-7.6c1.8-1.5,3.4-3.4,5.3-5c2.6-2.1,5.6-3.5,8.1-5.8c3.5-3.2,6.9-6.7,10.1-10.2
					c6.7-7.1,11.6-15.9,17.3-23.7c3.6-4.9,7.6-10.3,8.6-16.5c0.8-4.7-5-7.3-8.6-8.8c-3.8-1.6-8.1-2.2-12.2-1.7
					c-5.8,1-11,4.5-16.4,6.7c-11.8,5.2-24.9,6.4-35.2,14.7c-3.7,3-3.5,5.8-4.7,10c-0.8,2-1.8,3.9-2.9,5.7c-1.5,2.9-1.7,3.6-0.9,6.6
					c0.8,3,1.5,7,4.9,8.4c3,1.2,7.8,0.2,10.3-1.5c1.4-1.1,3-2.1,4.7-2.9c1.1-0.4,3.8-1.7,4.8-1.3c1.9,0.7,0.5,1.9-0.3,2.9
					c-0.7,0.9-1.3,1.9-1.7,2.9c-0.2,1-0.6,2-1.1,2.9c-3,3.4-9,5.2-13.2,6.6c-3.7,1.3-6.4,2.8-10.4,2.8c-5.4,0-3.2-4-4-7.9
					c-1.1-5-6.8-6.9-7.5-12.1c-0.6-5.2,1-11,3.1-15.5c1-1.9,2.1-3.7,3.4-5.5c2-3,4.9-4.8,8-6.9c9-5.9,20.2-8.7,30.3-12.2
					c10.2-3.4,21.2-4,31.3-7.6c6.9-2.5,14.1-3.2,21.1-4.5c6.5-1.2,12.2,1.4,14.9,7.3c2.9,6.3,6.3,13.1,4.3,20.1
					c-2.7,9.6-5.9,19.1-11,27.8c-6.2,10.7-13.8,20.8-25,26.7c-7.9,4.2-16.5,6.5-24.9,9.6c-6.3,2.5-12.9,4.4-19.6,5.5
					c-10.4,1.6-20,7.7-30.2,10.3c-14,3.5-28.3,6.3-42.6,8.3c-5,0.9-10.2,1.1-15.3,0.5c-2.4-0.3-4.6-0.1-6.9-1.1
					c-1.6-0.7-3.3-1.5-4.9-2.1c-5.6-2.4-11-6.4-10.3-13.2c0.6-6.4,2.9-12.8,4.1-19c0.8-4.2,0.9-8.2,1.9-12.4
					c0.8-3.2,1.5-6.4,2.3-9.5c0.7-2.7,1.8-5.4,3.3-7.7c3-4.2,5.3-9,8.4-13c1.3-1.4,2.5-3,3.6-4.7c0.7-1.5,1.6-2.9,2.8-4.2
					c1.2-1.3,2-3,3.3-4.4c2.5-2.3,5.2-4.3,8.1-6.1c6.1-4.5,12.7-8.4,19.7-11.6c6.7-2.9,13.8-4.9,20.7-7.2c6.2-2.1,12-5.5,18.2-7.9
					c7-2.6,14.3-4.4,21.7-5.3c14.8-2,29.6-3,44.6-3.1c18.7,0.1,39.4-7,57.1,1.9c4.5,2.1,8.1,5.8,10,10.4c3.1,7.5,4.7,15.6,4.5,23.7
					C339.7,74.3,340.1,77.8,339.6,81.2z"/>
			</g>
		</g>
		<g class="st4">
			<g class="st4">
				<path class="st3" d="M50.2,161.6c1.3,3.5,3,6.5,4.1,10c0.7,2.5,1.7,4.9,3,7.1c1.4,2.3,2.2,4.9,3.6,7.2c1.5,2.6,2.7,5.3,3.5,8.2
					c0.5,2.1,0.6,4.3,1.2,6.5c0.7,2.7,1.5,5.5,2.2,8.2c0.5,1.7,1.3,3.3,2.3,4.8c1,1.6,2.2,4.1,3.7,5.3c5,3.6,12.3,2.1,18.1,1.4
					c5.3-0.6,10.7-0.6,16-1.3c2.8-0.3,5.6-0.4,8.4-0.2c2.7,0.1,5.4,0.4,8,0.9c2.3,0.4,4.5,0.5,6.8,0.9c3.3,0.5,6.6,1.3,9.9,1.7
					c3.7,0.3,7.5,0.8,11.2,0.9c5.3,0.1,10.7-0.4,16,0.1c4.6,0.7,9.3,1.1,13.9,1.3c6.1,0,12.1-1.8,17.8-3.9
					c9.4-3.4,19.1-6.2,28.5-9.7c3.4-1.5,6.7-3.2,9.8-5.3c2.9-1.7,6-2.8,8.8-4.7c5.3-3.3,11.1-5.5,17.1-6.7
					c5.9-1.3,11.7-3.5,17.5-4.8c4-0.9,7.7-2.9,11.7-3.4c-0.7,3.1-7.5,4.2-9.9,5.1c-5.6,2-11.6,3.1-17,5.5c-3.5,1.6-6,4.6-8.8,7.2
					c-2.6,2.4-4.5,4.8-7.4,6.8c-2.9,2-6.1,3.3-9.6,4c-7.6,1.5-15,4.2-22.5,5.9c-7.6,1.7-14.9,3.4-21.9,6.6c-1.9,0.9-7.6,3.1-7.8,5.9
					c-0.2,2.2,2.5,1.4,4.1,1.4c3.4,0,7.8-0.8,11,0.5c2.3,1.1,4.6,2,7.1,2.7c5.8,1,11.7,0.4,17.1-1.8c7.2-2.8,15.2-4.3,22.8-5.7
					c5.3-1,10.4-2.5,15.7-3.6c4-0.7,8.1-1.2,12.2-1.4c6-0.6,11.9-1.3,17.8-2.2c4.7-0.8,9.9-1.3,14.2-3.4c3.6-1.8,7.8-2.9,11-5.4
					c0.8-0.7,5.6-4.8,6.8-3.8c2.3,2-10.9,9.6-11.9,10.2c-4.3,2.7-8.8,5-13.6,6.7c-6,2.5-12.2,3.5-18.5,5.1
					c-7.2,1.8-14.3,3.3-21.4,5.1c-7.1,1.8-14.5,2.7-21.6,5.1c-3.6,1.1-7.1,2.5-10.5,4.1c-3.1,1.6-6.4,2.6-9.4,4.3
					c-6.6,3.5-12.7,8.5-19.9,10.8c-6.2,2.1-12.6,3.6-19.2,4.2c-8.6,0.7-17.1-0.5-25.6-1.4c-8.7-1-17.4-1.5-26.1-1.5
					c-8.1,0.1-16.1,1.8-24.2,2.2c-5.5,0.3-10-1.7-15.1-3.6c-5.6-2.2-10.9-4.9-15.9-8.1c-4.5-2.8-9.7-4.2-15-4.1
					c-1.1,0.2-2.2,0.4-3.3,0.8c-1.3,0.1-2.6-0.3-3.6-1c-4.7-2.2-9.5-5.9-11.9-10.8c-2.3-5.3-3.8-10.9-4.4-16.6
					c-0.3-3.3-0.3-6.6-0.1-9.9c0-4.4-0.8-8.7-0.8-13c0-6.9-0.8-14.3,1.4-21c2-6.3,6.2-12.2,10.1-17.5c2.2-3,4-6.3,6.2-9.2
					c0.8,1.6-1.1,4.6-1.5,6.2C52.3,159.7,51.5,164,50.2,161.6z"/>
			</g>
			<g class="st4">
				<path class="st3" d="M375.7,199.5c-2,2.6-5.7,6-6.3,9.5c-0.6,3.5,3.2,2.9,5.7,2.5c5.3-0.8,10.8-1.3,15.8-3.4
					c3-1.2,5.7-2.9,8.7-4.2c2.5-1,5.1-1.4,7.5-2.4c5.8-2.5,12.1-3.8,17.9-6.4c5.1-2.6,9.7-5.9,13.6-10c2.8-2.7,5.6-4.8,7.6-8.4
					c1.4-2.6,3.1-5.1,4.3-7.9c1.5-3.7,2.4-7.6,2.8-11.5c0.3-2.1,0.3-4.2,0.1-6.3c-0.7-4.8-5.5-5.3-9.6-4.7c-5,0.7-9.1,3.6-12.9,6.9
					c-3.7,3.2-6.6,6.8-10.7,9.2c-4.5,2.7-8.9,5.5-13.2,8.5c-2.3,1.5-4.5,3.2-6.5,5.1c-1.6,1.7-3.2,3.5-5,5c-1.8,1.5-3.8,2.9-5.8,4.1
					c-1.6,1-3.2,2.5-4.9,3.4c-2.2,1.1-4.2,2.6-6,4.3c-1.3,1.1-2.4,2.4-3.3,3.8C374.3,199,374.6,202.2,375.7,199.5z"/>
			</g>
			<g class="st4">
				<path class="st3" d="M434.2,129.5c0.9-2.7,1.5-3.7,4-5c1.6-0.8,2.6-1,3.8,0.7c2,3.3,0.6,7.4-0.8,10.6c-0.9,2.3-4.7,4.7-6.5,1.8
					c-1.2-2-1.1-7.9,1.6-8.7L434.2,129.5z"/>
			</g>
			<g class="st4">
				<path class="st3" d="M220.1,228.7c1.3-2.4,1.6-2.7,4-3.6c1.5-0.7,3.1-1.2,4.7-1.4c2-0.2,4.2-1.3,6.3-0.6
					c3.1,1.1,2.5,3.9,0.4,5.8c-0.8,0.9-1.9,1.6-3.1,1.9c-1.6,0.4-3.3,0.7-5,0.7c-2.9,0-5.3,0.1-7.8-1.6c-0.1-0.3,0-0.5,0.1-0.8
					C219.7,229,219.9,228.8,220.1,228.7L220.1,228.7z"/>
			</g>
			<g class="st4">
				<path class="st3" d="M100.2,409.2c8.2,2.9,16.8,4.3,25.5,4.4c10.3,0.3,20.5,0,30.8-0.9c6.8-0.6,13.5-0.5,20.3-1.4
					c3.3-0.5,6.4-0.3,9.7-0.5c1.9-0.1,3.9-1.2,5.7-0.6c7.1,2.2-5.5,6.3-7,7c-5.2,2.6-10.9,3.4-16.4,5c-2.1,0.6-4.3,1.2-6.3,1.9
					c-1.9,0.8-3.9,1.6-5.9,2.2c-8.4,1.8-16.8,2.6-25.2,4.4c-3.2,0.8-6.4,1-9.7,0.6c-3.3-0.6-6.5-2.6-9.5-4.1
					c-3.7-1.6-7.3-3.6-10.7-5.9c-1.7-1.2-3.4-2.5-4.9-4c-0.6-0.9-1.1-1.8-1.3-2.9c-0.8-2.2-0.8-3,1.1-4.6c0.7-0.6,1.5-1,2.4-1.2
					c0.9-0.2,1.8-0.2,2.7,0.1C101.5,408.9,101.6,409.1,100.2,409.2z"/>
			</g>
			<g class="st4">
				<path class="st3" d="M317.4,493.5c-4.3,1.2-8.3,3-12,5.5c-1.6,1.1-3.6,3.1-1.2,4.5c3.2,2,8.4,0.9,11.9,0.6
					c6-0.5,11.9-1.6,17.8-2.4c4-0.5,8-1,12-1.8c5.2-1.1,10.3-2.6,15.3-4.4c3.7-1.2,7.2-2.8,10.5-4.9c3.5-2,6.9-4.2,10.1-6.6
					c4.1-3.4,9.5-6.1,11.1-11.6c1.3-4.6-8.6-2.9-10.5-2.6c-7.3,1-14.6,2.8-21.5,5.4c-3,1.1-6.2,1.9-9.2,3.2c-4,1.8-7.7,3.8-11.8,5.4
					c-1.9,0.8-3.6,2-5.5,2.6c-1.7,0.6-3.4,1.2-5.1,1.9c-1.7,0.7-3.8,1.6-5.7,2.2C319.1,491.9,314.7,493.1,317.4,493.5z"/>
			</g>
			<g class="st4">
				<path class="st3" d="M396.4,460.2c0.8-2.5,2.3-3.6,4.2-5.4c1.4-1.4,2.8-2.9,4.9-3.2c1.5-0.2,4,1.5,3.3,3.3
					c-0.6,1-1.3,1.9-2.1,2.6c-0.7,1.1-1.6,2-2.7,2.6c-2.2,1-4.7,1.2-7,0.4L396.4,460.2z"/>
			</g>
			<g class="st4">
				<path class="st3" d="M422.1,400.2c-1.7,1-3.6,1.9-5.4,2.6c-1.4,0.3-2.9,0.6-4.3,0.8c-4.4,0.7-8.9,1-13.3,1.4
					c-5.6,0.6-11.2,1.3-16.8,1.8c-9.9,0.8-20.4,1.6-29.9,4.7c-8,2.6-15.7,5.8-23.1,9.8c-6.5,3.4-12.8,7.4-18.6,11.9
					c-1.9,1.6-3.7,3.3-5.4,5.2c-1.2,1.1-2.2,2.5-3,4c-1,2.3-0.1,4,2,5.3c3.2,2,7.1,2.2,10.8,2.7c5.4,0.8,10.9,1.4,16.3,2.3
					c5.6,0.9,11.3,1.5,16.9,1.8c5.8,0.3,11.9,0.1,17.4-2c3.9-1.4,7.7-3.1,11.4-5.1c3.6-2,7.1-4.1,10.5-6.4c2.5-1.5,4.9-3.2,7.1-5
					c0.9-0.9,1.9-1.6,2.9-2.5c1.5-1.3,2.6-2.9,4.2-4.2c3.4-2.9,6.5-6.1,9.2-9.7c2.1-2.7,4.6-5.1,6.7-7.8c1.2-1.6,2.5-2.5,3.2-4.5
					C421.3,405,421.8,402.6,422.1,400.2z"/>
			</g>
			<g class="st4">
				<path class="st3" d="M434,392.1c0.9-1.7,2.2-3.2,3.7-4.4c1.2-1.1,2.8-3.1,4.4-3.7c0.4-0.2,0.9-0.2,1.3-0.2
					c0.4,0.1,0.9,0.3,1.2,0.5c0.3,0.3,0.5,0.7,0.6,1.2c0.1,0.4,0.2,0.9,0.1,1.3c-0.3,2-2.3,3.6-4,4.4c-2.1,1.1-3.3,0.5-5.5,0.2
					L434,392.1z"/>
			</g>
			<g class="st4">
				<path class="st3" d="M509.6,321.2c-1.1,0.8-2.1,1.8-3,2.9c-1.3,1.9-2.4,4-4,5.7c-1.5,1.9-2.9,4-4.1,6.2c-1.6,2.7-3.4,5.3-4.8,8
					c-3.1,6-5.6,12.2-8.4,18.3c-1.4,3.1-2.6,6.2-4,9.2c-1.6,3.2-2.7,6.7-3.4,10.2c-0.4,2.6-1.1,6.9,2.4,7.4
					c4.3,0.6,8.6-3.1,11.7-5.5c8.1-6.5,15.1-14.4,20.6-23.3c5.5-8.8,10.9-19.3,9.5-29.9c-0.5-4.8-0.4-9.7,0.3-14.5
					c0.7-5.1,2.2-10.2,2.3-15.4c0-3.7,0.7-7.2-0.1-10.9c-0.1-1.2-0.7-2.3-1.6-3.1c-0.9-0.6-1.6,0-2.5,0.6c-2.6,1.9-4.6,4.3-6,7.2
					c-1.7,3.5-1.8,7.3-3.2,10.9c-0.4,1.3-0.9,2.5-1.4,3.8c-0.5,1-1.2,1.9-1.7,2.9c-0.8,1.8-1.4,3.7-1.8,5.7
					c-0.3,1.2-0.5,2.3-0.8,3.5c-0.3,0.9-0.7,1.9-0.9,2.9C504.8,325.2,505.1,325.9,509.6,321.2z"/>
			</g>
			<g class="st4">
				<path class="st3" d="M470.1,384.5c-0.9,0.8-6,5.9-4,7.1c0.6,0.4,2.1,0,2.6-0.3c1-0.5,2-1.2,2.8-2c0.5-0.4,0.9-0.9,1.2-1.5
					c0.2-0.6,0.3-1.3,0.2-1.9c0-2.3-1.4-2.2-3.3-1.4L470.1,384.5z"/>
			</g>
			<g class="st4">
				<path class="st3" d="M482.5,396.4c1.1-1.5,1.4-2.1,3-2.7c1.1-0.7,2.3-1.2,3.6-1.6c1.6-0.3,2.4,0.4,2.5,2
					c0.2,2.8-3.3,6.5-4.8,8.5c-1.9,2.6-4.1,5-6.6,7.1c-3.6,2.8-6.2-1.7-4.8-5.1c0.8-2,1.1-4.4,2.4-6.2c2-2.8,4.9-2.8,8.1-3.4
					L482.5,396.4z"/>
			</g>
			<g class="st4">
				<path class="st3" d="M206.5,88.1c-1.5,0.8-2.8,1.9-3.9,3.3c-1,1.4-1.8,2.9-2.2,4.6c-0.5,1.6-1.1,5.1,0.2,6.5
					c2.3,2.4,8.5-0.2,10.8-1.1c4.4-1.7,8.9-4.2,13.4-5.3c8.6-2,18.1-2.8,25.5-8.1c4.2-3.1,7.8-7,10.7-11.4c1.9-2.7,4.3-4.9,4.6-8.5
					c0.5-7.1-9.5-7.6-14.1-6.5c-10,2.2-19.7,5.5-29,9.8c-5.5,2.6-12.2,6-16.1,10.9c-1,1.4-1.8,2.9-2.3,4.4
					C203.7,88,202.7,91.2,206.5,88.1z"/>
			</g>
			<g class="st4">
				<path class="st3" d="M225.1,108.1c-1.2-2.6-1.8-2.9,0.2-4.5c1.6-1.3,3.4-2.4,5.3-3.3c2.2-1.1,4.7-1.7,7.1-1.6
					c5,0.6,2.7,6.2,1.2,8.9c-1,1.7-1.7,3.3-3.3,4.2c-1.9,1.1-3.2,1.6-5.3,0.9c-1.5-0.6-2.8-1.4-4-2.5c-0.8-0.8-2.8-2.1-2.6-3.5
					l0.6-0.1L225.1,108.1z"/>
			</g>
			<g class="st4">
				<path class="st3" d="M190.1,169.5c0.1-2.4-0.1-2.9,1.4-4.4c2.2-2.2,5.4-4,8-5.6c5.9-3.7,12.2-6.7,18.9-8.8
					c5.9-1.9,12-3.3,18.1-4.2c4.6-0.7,8.9-2.2,13.5-2.9c7.1-1,15.8-4.4,21.5,2.3c4.6,5.5-3.9,12.7-7.9,15.6c-3.4,2.5-7.3,4.2-11.5,5
					c-4.9,1.2-9.8,2.7-14.7,4c-9.1,2.3-17.6,6.6-26.4,10c-6,2.3-10.3,2.1-15.7-1.5C192.5,177.1,187.5,172,190.1,169.5z"/>
			</g>
			<g class="st4">
				<path class="st3" d="M272.9,128.8c-1.2,2.2-4.1,6.2-0.3,7.6c2.2,0.8,3.7-1,5.3-2.2c1.6-1.2,3.9-2.6,5-4.7
					c0.3-0.4,0.6-0.9,0.7-1.5c0.1-0.5,0.1-1.1-0.1-1.6c-0.2-0.5-0.4-1-0.8-1.4c-0.4-0.4-0.9-0.7-1.4-0.8c-4.5-2-6.6,2.3-9.1,5.3
					L272.9,128.8z"/>
			</g>
			<g class="st4">
				<path class="st3" d="M342.8,85.3c-4,4.1-6.3,8.9-5.7,14.7c0.6,5.8,4.5,6.9,9.2,4.5c1.4-0.6,2.8-1.3,4.1-2.1c1.3-1,2.1-3,3.1-4.3
					c2.3-2.8,3.5-6.4,3.4-10c0-3.6,0.4-7.4-0.5-10.9c-0.5-1.9-1.3-4.5-3-5.7c-2-1.3-3.5,0.4-5,1.6c-1.4,0.9-2.6,2.1-3.6,3.4
					c-1.6,3-2.8,6.2-3.6,9.4L342.8,85.3z"/>
			</g>
			<g class="st4">
				<path class="st3" d="M262.2,208c0.2-2.7,0.1-2.9,2.1-4.4c1.4-1.2,2.9-2.3,4.5-3.3c3-1.6,6.4-2.7,9.8-3c2.7-0.3,5.5,0.1,7.9,1.3
					c1.5,0.9,1.8,2.6,1.4,4.5c-0.5,2.6-3.1,4.2-5,5.7c-1.9,1.5-4.5,3.5-7,4.1c-2.9,0.9-6,1-9,0.4c-1.8-0.5-5.6-1.2-5.5-3.8
					L262.2,208z"/>
			</g>
			<g class="st4">
				<path class="st3" d="M297.2,183c1.8-2.5,2.9-4.7,5.5-6.3c1.2-0.7,4.1-2.9,5.6-2.9c0.6,0.1,1.2,0.4,1.6,0.8s0.7,1,0.9,1.6
					c0.2,1.3-1.1,2.9-1.7,4c-1.5,2.3-3.6,4-6.1,5.2c-1.1,0.6-2.4,0.7-3.6,0.4c-1.3-0.4-1.8-1.6-2.9-2L297.2,183z"/>
			</g>
			<g class="st4">
				<path class="st3" d="M158,77.4c-3.5,3.5-6.4,7.2-7.5,12.1c-0.3,0.7-0.3,1.5-0.1,2.2c0.2,0.7,0.6,1.4,1.2,1.9
					c1.9,1.6,4.2,0.8,6.4,0c6.1-2.1,11.9-5.7,17.1-9.2c4.9-3.2,11.3-4.1,15.1-8.7c2-2.5,4.1-5.3,2.2-8.6c-1.7-2.8-6-4-9-4.1
					c-4.4,0.1-8.7,1.2-12.5,3.4C165.8,69.3,161.5,73,158,77.4z"/>
			</g>
			<g class="st4">
				<path class="st3" d="M138,62.4c6.7-1.3,12.6-2.7,18.5-6.3c1.2-0.7,2.4-1.1,3.5-1.7c1.1-0.6,1.3-1.4,2.2-2.2
					c-0.6-2.7-8-1.1-9.7-0.4c-2.3,0.9-4.6,2.3-6.8,3.4c-1.2,0.5-2.3,1.2-3.4,1.9c-2.2,1.6-3.5,4.5-5,6.7L138,62.4z"/>
			</g>
		</g>
		<g class="st5">
			<g class="st5">
				<path class="st3" d="M347.8,212.8c-1.9,1.2-3.9,2.3-6,3.3c-3.4,1.4-6.5,3.3-9.8,4.8c-4,1.7-8.2,2.8-12.3,4.2
					c-5.8,1.9-11.3,4.4-16.5,7.4c-5.3,3.2-10.3,7.9-13,13.5c-1.5,3.2-2.2,7.6-0.3,10.8c1.1,2.1,2.8,3.8,4.9,4.8
					c3.5,1.6,6.8,0.6,10.3-0.2c4.4-1,8.7-2.5,12.7-4.5c2.1-1.1,4.2-2.4,6.3-3.6c2.1-1.1,4.7-2.1,7.1-3c1.8-0.8,3.7-1.4,5.6-2
					c2.3-0.8,4.5-1.9,6.4-3.4c3.8-2.8,7-6.3,9.4-10.4c2.9-5.3,4.5-10.6,3.5-16.6C355.2,213.5,351.9,211.3,347.8,212.8z"/>
			</g>
			<g class="st5">
				<path class="st3" d="M283.1,245.6c-1.3-1.8-2.2-1.6-4.3-1.5c-1.6,0.2-3.2,0.5-4.8,0.9c-7.9,1.7-16,2.5-23.8,4.5
					c-4.4,1-8.6,2.5-12.5,4.5c-4,2.1-8.1,4-12,6.4c-8.9,5.5-18.6,9.5-28.8,11.8c-6.4,1.3-12.7,2.6-19.1,3.8
					c-3.8,0.7-7.8,1.3-11.6,2.1c-3.8,0.8-7.6,1.9-11.5,2.8c-6.9,1.4-13.7,3.3-20.3,5.7c-6.7,2.5-13.6,4.9-18.9,10
					c-2.7,2.6-6.2,6.4-6.2,10.5c0.1,2.8,1.1,5.6,2.6,7.9c5.3,8.7,15.4,13.9,24.2,18.4c12.2,6.2,26.7,7,40.1,8.5
					c17.4,1.9,35.1,1,52.2-2.6c7.7-1.6,15.5-3.1,23.2-4.5c9.3-1.8,18.8-3,28.1-4.9c7.7-1.6,15.4-3.4,22.9-5.6
					c4.1-1.1,8.2-2.6,12.1-4.3c3.4-1.6,6.8-3.5,10-5.5c2.7-1.5,5.4-3.2,7.9-5.1c2.1-1.8,4-3.9,5.6-6.1c2.7-3.5,4.5-7.4,6.7-11.3
					c1.4-2.7,3-5.3,4.7-7.9c1.8-2.4,3.9-4.7,5.8-7.1c4.1-4.9,9-9.1,12.8-14.2c2.2-3,4.4-6.7,4.7-10.4c0.2-2.5,0.2-5.2-2.4-6.3
					c-2.6-1-5.4-1.3-8.2-0.9c-2.8,0.5-5.5,1.3-8.1,2.3c-4.7,1.3-9.2,3.1-13.5,5.4c-10.9,5.8-21.6,13.1-33.8,15.7
					c-5,1.1-10.1,1.6-14.9-0.4c-3.6-1.4-7.1-3.2-10.3-5.4c-4.2-3-2.9-6.7-1.1-10.8C281.5,250.1,283.7,246.1,283.1,245.6z"/>
			</g>
			<g class="st5">
				<path class="st3" d="M517.7,189c0,4.4-0.4,8.9-1.1,13.3c-0.3,2-0.6,4-0.9,5.9c-0.4,2.6-1.7,5-2.3,7.6c-1.1,4.7-3.3,8.7-5.3,13
					c-2,4.3-3.3,9-5.3,13.5c-5.5,12.5-8.7,25.8-14,38.4c-2.6,6.2-5,12.7-7.9,18.8c-2.6,5.5-5.8,10.8-8.5,16.2c-1,2-3.8,5.8-1.7,7.9
					c1.7,1.7,4.8,0.1,6.6-0.8c7.2-3.8,10.2-12.9,14.6-19.3c2.2-3.2,5.7-5.6,8-8.8c3-4.2,6.7-9.1,8.7-13.8
					c4.2-9.7,6.7-19.8,10.3-29.8c3-8.2,3.4-16.2,3.4-24.8c0-3.6,0.4-7.2-0.7-10.7C520.7,212.2,519.9,206.8,517.7,189z"/>
			</g>
			<g class="st5">
				<path class="st3" d="M504.4,201.4c-3,2.9-9.2,10.1-6.3,14.8c1.6,2.6,6.3,1.5,8-0.8c1.4-1.9,1.1-5.1,1.1-7.4c0-1.2,0.4-3.1,0-4.2
					c-0.4-1.1-1.6-1.3-1.8-2.5H504.4z"/>
			</g>
			<g class="st5">
				<path class="st3" d="M446.3,339.4c-3.9,2.3-7.6,4.8-11.1,7.6c-3.4,2.3-7,4.3-10.7,5.9c-9.4,4.5-19.4,7.6-29.7,9.3
					c-13.2,2.3-26.7,4.1-39.5,8.3c-9.7,3.2-19.4,6.6-29,10c-9.1,3.2-19.4,5.5-27.5,11c-2,1.3-4.7,3.4-4,6.1c1.1,4.3,10,4.5,13.1,4.6
					c9.5,0.4,19.1,0,28.5,0c4.5,0,9.1-0.2,13.6,0.2c5.6,0.6,11.3,0.6,17,0c7.1-0.6,14.5-0.5,21.4-2.6c13.2-4.2,26.3-9.2,39.2-14.3
					c11.6-4.6,28.4-14,27.4-28.5C454.4,350.7,450.5,342,446.3,339.4z"/>
			</g>
			<g class="st5">
				<path class="st3" d="M465.4,350.7c-1.9-4-2.4-5-0.4-8.6c1.3-2.3,5.3-5.7,8.2-5.7c5.9,0,6.1,6.7,4.8,10.8c-1.2,3.6-2.6,9-6.9,9.2
					c-0.7,0.1-1.4,0-2-0.1c-0.6-0.2-1.2-0.5-1.7-1c-1.4-1-3.3-4.3-4.8-4.6L465.4,350.7z"/>
			</g>
			<g class="st5">
				<path class="st3" d="M50.5,362.2c-1.1,4.5-1.7,8.6,0.5,12.9c3,6,9.7,10,15.8,12c3.9,1.1,7.8,1.7,11.9,1.8c4.5,0.2,9,0.9,13.5,1
					c6.7,0.1,13.4,0.6,20.1,1.6c3.7,0.5,7.3,1.6,11,2.1c2.9,0.3,5.7,0.8,8.5,1.4c6,1.4,12,1.4,18.1,2.3c6.4,0.8,12.9,0.6,19.3-0.4
					c5.5-0.8,11.4-1.6,14.1-6.9c2.1-4.2,0.6-6.5-3.1-9.4c-3.3-2.6-8.8-3.7-12.6-4.9c-5.9-2-11.7-3.8-17.8-5.3
					c-8.4-2-16.6-5-24.9-7.5c-17.1-5-33.6-12.1-51.5-13.7c-7.4-0.7-16.2-0.8-23.1,2.6c-2.2,1.2-3.9,3.2-4.7,5.5
					C44,360.7,45.8,362.9,50.5,362.2z"/>
			</g>
			<g class="st5">
				<path class="st3" d="M49.5,330.8c1,3.1,0.8,4.1,3.7,5c1.9,0.8,3.9,1,5.9,0.6c2.5-0.7,5.4-2.5,5.7-5.1c0.4-2.9-2.2-5-4.5-6.2
					c-4.7-2.5-8.4-2.3-10.8,2.9V330.8z"/>
			</g>
			<g class="st5">
				<path class="st3" d="M250.3,120.5c-0.1-1.7,0.2-3.4,1-4.9c0.9-2.1,2-4.2,3.3-6.1c0.9-1.3,1.5-2.8,2.3-4.2
					c1.2-1.9,2.5-3.7,3.5-5.7c1.5-2.5,3.3-4.9,5.3-7.1c1.3-1.5,2.4-3.1,3.3-4.8c0.8-1.4,1.9-2.5,2.6-4c1-1.7,1.7-3.8,2.6-5.6
					c0.9-2,2-3.9,3.2-5.7c0.8-1.4,1.7-2.7,2.9-3.8c0.9-0.9,1.8-1.7,2.8-2.4c2.3-1,3.5-0.2,4.7,1.9c1.8,3.7,2.7,7.9,2.5,12
					c-0.2,4.3-1,8.6-2.4,12.7c-1.1,2.8-2.5,5.6-4.1,8.2c-2.8,4.9-6.2,9.5-9.5,14.2c-1.9,2.7-5.2,5-7.9,7.1c-1.7,1.3-3.5,2.3-5.5,2.9
					c-1.1,0.4-2.7,1.1-4,0.9c-1.2-0.4-2.3-0.8-3.4-1.3C250.9,123.8,249.6,121.4,250.3,120.5z"/>
			</g>
			<g class="st5">
				<path class="st3" d="M239.8,124.3c-1.6,0.8-3.4,1.4-4.1,3.2c-0.2,0.5-0.5,1.5-0.2,2c1.3,1.9,5.9-0.6,6.9-1.7
					c1-1,2.2-2.9,1.2-4.3c-0.2-0.3-0.5-0.5-0.8-0.7c-0.3-0.2-0.7-0.3-1-0.3c-0.4,0-0.7,0-1.1,0.1c-0.3,0.1-0.6,0.3-0.9,0.5V124.3z"
					/>
			</g>
			<g class="st5">
				<path class="st3" d="M324.1,56.3c-1.1,0.5-2.1,1.2-3,2c-0.4,0.8-0.7,1.6-0.9,2.4c-1.1,3-1.9,6.2-2.2,9.3
					c-0.3,3.1-0.4,8.7,3.3,10c7.1,2.5,17.5-2.6,18.1-10.6c0.3-4.5-2.1-8.8-4.8-12.2c-1.3-1.8-2.8-3.5-4.5-5c-0.6-0.5-1.3-0.8-2-1
					c-0.7-0.2-1.5-0.3-2.2-0.2C323.2,51.5,321.4,54,324.1,56.3z"/>
			</g>
			<g class="st5">
				<path class="st3" d="M322.6,95.3c0-1.6,0-1.9,1-3c0.7-0.7,1.4-1.3,2.3-1.7c1.7-0.6,2.8,0.7,2.9,2.3c0.1,1.2,0.1,3.7-1,4.5
					c-1.1,0.8-5.5,0.1-5.3-1.6L322.6,95.3z"/>
			</g>
			<g class="st5">
				<path class="st3" d="M374.5,62.9c-0.7,3-0.6,6-1.2,9.1c-0.9,5-1.5,10-1.6,15c-0.1,2.6,0,5.2-0.1,7.8c-0.4,3.2-0.5,6.4-0.3,9.6
					c0.4,4.1,0.9,8.5,3.6,11.8c2,2.3,4.7,1.5,7.2,0.5c2-1,4-2.2,5.7-3.7c1.4-0.9,2.8-2,4.1-3.2c5.7-5.3,10.8-11.1,13.1-18.7
					c1.6-5.5,3.3-11.9,1.9-17.6c-0.7-3.7-2.4-7.1-4.8-9.9c-1.9-2.1-4.2-3.8-6.7-5c-2.1-1.1-4.4-1.2-6.6-1.7
					c-1.9-0.4-3.8-0.6-5.7-0.6c-1.8,0-3.5,0.2-5.3,0.5C374.1,57.5,373.2,62.4,374.5,62.9z"/>
			</g>
			<g class="st5">
				<path class="st3" d="M380.2,124.8c0.7-2.1,2.1-4.2,4.6-3.1c0.9,0.4,1.5,1.1,1.9,2c0.3,0.9,0.3,1.9,0,2.8
					c-0.3,0.6-0.9,1.2-1.6,1.4s-1.4,0.3-2.1,0.1c-0.9-0.4-1.7-1-2.3-1.8c-0.9-1.1-0.2-2,0-3.3L380.2,124.8z"/>
			</g>
			<g class="st5">
				<path class="st3" d="M386.9,175.7c-1.9,0.2-3.7,0.6-5.5,1.2c-0.2,0.4-0.4,0.8-0.7,1.2c-0.4,0.5-1.5,1.2-1.3,1.9
					c2.4,1,5.8-0.6,7.9-1.7c1.1-0.5,2.1-1.2,3-2c0.6-0.5,1.1-1.1,1.6-1.7c0.8-1.4,0-2.1-1.4-2.1c-1.4,0-4.9,1.1-5,2.9L386.9,175.7z"
					/>
			</g>
			<g class="st5">
				<path class="st3" d="M465.8,167.6c0,1.6-0.3,3.2-1.1,4.7c-0.7,1.7-1.6,3.7-1.3,5.6c0.7,4.5,6.9,3.6,10,3.2c3.7-0.5,7.2-1.3,10-4
					c2-1.7,3.4-4.1,3.7-6.8c0.7-4.8,1.8-12.8-5.3-12.7c-2.9,0.2-5.7,1.2-8.1,3c-1.6,1.1-3,2.5-4.2,4.1
					C467.9,166.6,466.1,168.2,465.8,167.6z"/>
			</g>
			<g class="st5">
				<path class="st3" d="M416.4,426.3c2.1-6.7,5.3-12.3,11.4-16.1c1.4-0.9,2.6-2,4.3-1.1c1.4,0.7,1.1,2.4,0.7,3.7
					c-0.8,2.1-2,4.1-3.5,5.9c-1.4,1.6-2.9,3.1-4.5,4.6c-0.9,1-2,1.7-3.3,2.1C419.6,425.5,418,425.8,416.4,426.3z"/>
			</g>
			<g class="st5">
				<path class="st3" d="M174.2,434c0.1-2.6,1.6-3.8,3.6-5.4c4.5-3.5,9.6-6.1,15.1-7.6c4.7-1.5,10.2-2.5,15.1-1.2
					c2.2,0.6,4.9,1.6,5.8,3.9c1.6,3.8-2.5,9.4-5.6,11.6c-3.8,2.6-9.4,3.5-13.8,4.8c-4.1,1.2-8.4,1.6-12.6,1.1
					c-1.5-0.1-3-0.4-4.5-0.8c-1.4-0.3-2.7-0.8-4.1-1.2c-1.2-0.6-2.7-1.6-2.8-3c0-0.8,0.2-1.7,0.6-2.4
					C171.7,432.3,173.2,432.1,174.2,434z"/>
			</g>
		</g>
		<g>
			<g>
				<path class="st6" d="M458.9,150.4c-1.6,1-4.5,2.5-4,4.9c0.3,1,0.8,2.1,1.2,3.1c0.3,0.9,0.5,1.9,0.6,2.8c0.2,1.6,0.8,3.1,1.8,4.4
					c0.7,0.8,1.5,0,1.9-0.8c0.6-0.8,1-1.7,1.1-2.6c0-1.2,0.2-2.5,0.4-3.7c0.1-0.5,0.5-0.9,0.6-1.3c0.1-0.7,0.1-1.4,0.1-2
					c0-1.1-0.4-2.1-1.1-3C460.9,151.3,460,150.7,458.9,150.4z"/>
			</g>
			<g>
				<path class="st6" d="M434.1,284.2c-0.3,0.1-0.6,0.2-0.8,0.5c-0.1,0.2-0.1,0.3-0.1,0.5c-0.1,0.8,1,1.1,1.5,1.2
					c0.7,0.2,1.5,0.3,2.3,0.2c0.8-0.1,1.5-0.3,2.2-0.7c0.5-0.3,0.9-0.7,1.3-1.2c0.3-0.5,0.6-1,0.7-1.6c0-0.7-0.2-1.4-0.6-2
					c-0.4-0.6-0.9-1.1-1.6-1.4c-0.5-0.4-1.2-0.6-1.9-0.7c-0.7-0.1-1.3,0-2,0.3c-0.4,0.3-0.8,0.7-1,1.1c-0.1,0.4-0.1,0.8-0.2,1.2
					c-0.1,0.4-0.5,0.9-0.4,1.5C433.6,283.6,433.8,283.9,434.1,284.2z"/>
			</g>
			<g>
				<path class="st6" d="M442.6,286.8c0-0.2,0-0.3,0.1-0.5c0.1-0.1,0.2-0.3,0.3-0.3c0.1-0.1,0.3-0.2,0.4-0.2c0.2,0,0.3,0,0.5,0.1
					c0.1,0.1,0.2,0.2,0.3,0.3c0.1,0.1,0.1,0.3,0.2,0.4c0,0.1,0,0.3,0,0.4c0,0.1-0.1,0.3-0.2,0.4c-0.1,0.1-0.3,0.2-0.5,0.3
					c-0.2,0.1-0.4,0.1-0.6,0c-0.2-0.1-0.4-0.2-0.5-0.4c-0.1-0.2-0.2-0.4-0.2-0.6L442.6,286.8z"/>
			</g>
			<g>
				<path class="st6" d="M463.4,255.1c-0.5,0-1,0.3-1.3,0.7c-0.1,0.1-0.2,0.2-0.3,0.4c-0.1,0.1-0.1,0.3-0.1,0.4
					c0.1,1,0.6,1.8,1.4,2.5c0.2,0.2,0.5,0.3,0.8,0.4c0.3,0.1,0.6,0,0.9,0c0.5-0.2,1-0.6,1.5-1c0.4-0.3,0.8-0.6,1.2-1
					c0.4-0.2,0.7-0.6,0.8-1c0.2-0.4,0.2-0.9,0.2-1.3c-0.1-0.4-0.3-0.8-0.6-1.2c-0.3-0.3-0.7-0.6-1.1-0.7c-0.6-0.1-1.2-0.1-1.7,0.2
					C464.4,253.7,463.9,253.7,463.4,255.1z"/>
			</g>
			<g>
				<path class="st6" d="M459.5,257.9c0.4,0.2,0.8,0.4,1.1,0.7c-0.1,0.2,0.1,0.4,0,0.6c-0.1,0.2-0.7,0.1-1,0
					c-0.3-0.1-0.6-0.4-0.7-0.7c0-0.1-0.3-0.6,0-0.6L459.5,257.9z"/>
			</g>
			<g>
				<path class="st6" d="M413.2,275c-0.4,0.5-0.9,1-0.6,1.7c0.2,0.3,0.4,0.5,0.7,0.6c0.3,0.1,0.6,0.1,1,0c0.3,0,0.7-0.1,0.8-0.5
					c0.1-0.4,0.2-0.8,0.3-1.2c0.3-0.9,1.3-1.3,0.8-2.4c-0.1-0.2-0.3-0.4-0.5-0.6c-0.2-0.2-0.5-0.3-0.7-0.3c-0.9,0-1.5,0.8-2,1.5
					L413.2,275z"/>
			</g>
			<g>
				<path class="st6" d="M287.6,364.5c0.3-0.6,0.6-1.6,1.6-2c0.6-0.2,1.2-0.2,1.8,0c1.5,0.2,2.9,0.7,2,2.1c-0.7,0.8-1.6,1.3-2.6,1.5
					c-0.9,0.1-2.5-0.1-2.4-0.9L287.6,364.5z"/>
			</g>
			<g>
				<path class="st6" d="M376.1,57.2c-0.3,1.3-0.8,3,0.7,4c1,0.6,2.6,0,3.5-0.7c1.5-1.3,2.5-3.1,2.9-5.1c0.2-1.7-1.9-3.6-3.4-3.8
					c-3.2-0.4-5,4.7-5.1,7.1L376.1,57.2z"/>
			</g>
			<g>
				<path class="st6" d="M368.9,347.9c-1,1.5-1.4,3.3-1.1,5.1c0.1,1.1,0.1,2.5,1.5,2.9c3.3,0.8,6.7-5.3,7.6-7.3
					c0.8-1.6,1.1-3.3,1-5.1c-0.1-1-0.8-2.8-2-3.2c-0.8-0.1-1.6-0.1-2.4,0.2c-0.8,0.3-1.5,0.7-2,1.3c-2.5,2.5-2.3,5.3-3.6,8
					L368.9,347.9z"/>
			</g>
			<g>
				<path class="st6" d="M367.2,347.7c-0.9,0.1-1.7,0.3-2.5,0.7c-0.4,0.2-1.1,0.6-1.2,1c-0.1,0.4,0.2,1,0.6,1.3
					c0.2,0.1,0.4,0.2,0.6,0.2c0.2,0,0.4,0,0.6-0.1c0.3-0.2,0.6-0.4,0.8-0.7c0.4-0.4,0.7-0.8,1-1.3c0.2-0.2,0.3-0.4,0.4-0.7
					c0.1-0.4-0.2-0.5-0.2-0.7L367.2,347.7z"/>
			</g>
			<g>
				<path class="st6" d="M363.4,362.3l1.1,0.3c-0.1,0.4,0,0.8-0.5,1.1c-0.5,0.2-1,0.3-1.5,0.2c-0.5-0.1-0.8-0.4-0.7-0.8
					s0.7-0.7,1.2-0.9L363.4,362.3z"/>
			</g>
			<g>
				<path class="st6" d="M307.6,374.6c0,0.4,0,0.7,0.4,0.8c0.4,0.1,0.8,0.1,1.2,0.1c0.4-0.1,0.7-0.3,1-0.5c0.8-0.8,1.5-2.1,1-2.9
					c-0.3-0.3-0.7-0.5-1.1-0.5c-0.4,0-0.8,0-1.2,0.3c-0.4,0.3-0.8,0.6-1.1,1c-0.2,0.2-0.3,0.5-0.4,0.8
					C307.5,374,307.5,374.3,307.6,374.6L307.6,374.6z"/>
			</g>
			<g>
				<path class="st6" d="M249,279.6c-0.4,0.4-0.6,0.5-0.7,1c-0.1,0.3-0.1,0.5-0.1,0.8c0,0.3,0.1,0.5,0.2,0.8c0.9,1,2,1.7,3.4,2
					c0.5,0.1,0.9,0.2,1.4,0.1c0.5-0.1,0.9-0.3,1.3-0.6c0.5-0.3,0.9-0.7,1.2-1.2c0.3-0.5,0.5-1,0.6-1.6c0.1-0.5,0.1-1.1-0.1-1.6
					c-0.2-0.5-0.6-1-1-1.3c-0.9-0.7-1.9-1.2-3.1-1.4c-0.4-0.1-0.9,0-1.3,0.1c-0.4,0.1-0.8,0.4-1.1,0.7
					C249,277.8,248.2,278.8,249,279.6z"/>
			</g>
			<g>
				<path class="st6" d="M257.6,283.5c0-0.3,0-0.7,0.3-0.8c0.3,0,0.6,0,0.8,0.2c0.3,0.1,0.5,0.3,0.7,0.5c0.3,0.3,0.4,0.8,0.4,1.2
					c-0.1,0.3-0.3,0.5-0.6,0.7c-0.2,0.2-0.4,0.3-0.6,0.3c-0.2,0-0.5,0-0.7-0.2c-0.3-0.2-0.9-0.5-0.8-0.9L257.6,283.5z"/>
			</g>
			<g>
				<path class="st6" d="M92.1,249.7c-2.5-3.4-3.7-7.5-3.4-11.6c0.1-1.8-0.1-5,2.4-4.7c3.4,0.3,5.1,5.6,6.1,8.2
					c1.4,4,2.8,7.9,2.3,12.1c-0.7,5.8-8.3-5.7-9.1-6.8L92.1,249.7z"/>
			</g>
			<g>
				<path class="st6" d="M99.5,230.6c-0.6,3.4,0.9,8.1,4.5,9.2c1.3,0.4,1.8-0.4,2.5-1.6c0.4-0.6,0.6-1.2,0.8-1.9
					c0.1-0.7,0.1-1.4-0.1-2c-0.4-0.9-0.9-1.7-1.6-2.5c-0.4-0.4-0.7-0.9-0.9-1.4c-0.2-0.5-0.2-1-0.6-1.4c-1-1.1-4.9-2.1-4.5,0.6
					V230.6z"/>
			</g>
			<g>
				<path class="st6" d="M136.5,469c0.8-2.1,2.3-4,4.2-5.2c2.2-1.5,4.6-2.5,7.1-3.2c2.4-0.6,4.9-0.4,7.2,0.6c2.2,1.2,4.2,3,6.3,4.3
					c1.9,1.3,3.8,2,5.5,3.6c1.5,1.5,2.7,3.4,3.4,5.4c1.2,3.1,2,7.7,0.7,10.9c-1.2,2.8-2.9,2.9-5.7,2.8c-4-0.1-7.8-3.3-10.3-6.2
					c-1.1-1.5-2.4-2.9-3.8-4.2c-1.8-1.4-3.7-2.7-5.6-4c-1.9-1-3.7-2.2-5.4-3.4C139.4,469.7,137.1,467.9,136.5,469z"/>
			</g>
			<g>
				<path class="st6" d="M205.1,289.3c-0.2,1.5-0.6,2.1,0.4,2.8c0.3,0.2,0.7,0.4,1.1,0.4c0.4,0,0.8-0.1,1.1-0.4
					c0.8-0.5,2.6-2.2,2.4-3.2c-0.5-2.1-5.8-2.2-5.5,0.4L205.1,289.3z"/>
			</g>
			<g>
				<path class="st6" d="M304.8,357.3c-0.9-4,3.2-9.7,7.7-12.9c6.5-4.6,16.4-5.6,23.6-4.6c6.1,0.8,11.1,4,12.3,8.4
					c0.3,1.2,0.1,2.4,0.4,3.6c0.2,0.9,0.5,1.4-0.9,2.2c-3.3,1.9-8.5,3-12.2,3.6c-4.1,0.8-8.3,1.3-12.5,1.3
					c-3.5-0.1-6.9-0.6-10.4-0.7c-1.7,0-3.4-0.1-5-0.4C307.1,357.5,305.1,357.8,304.8,357.3z"/>
			</g>
			<g>
				<path class="st6" d="M338.3,333c0.6,0.8,0.6,1.2,1.8,1.3c0.9,0,1.8-0.3,2.6-0.8c1-0.6,2.3-1.9,1.8-2.6c-0.8-1.4-6.6-0.6-6,1.3
					L338.3,333z"/>
			</g>
			<g>
				<path class="st6" d="M428.6,256.5c0.2-1.1,0.6-2.1,1.2-3.1c0.3-0.2,0.6-0.3,0.9-0.4c0.3-0.1,0.7-0.1,1,0c0.6,0,1.2,0.2,1.7,0.5
					c0.5,0.3,1,0.7,1.3,1.2c0.6,0.5,1,1.2,1.3,1.9C436.9,260.9,429.6,259.2,428.6,256.5L428.6,256.5z"/>
			</g>
		</g>
	</g>
</g>
<path class="st7" d="M582,432.6c10.8-1.5,21.6-6.1,32.5-15.7c24.3-21.4,19.6-58,1.4-79.8c-18.6-22.2-56.4-35.3-101.6,0.7
	c-76.6,61.1-108.5,38.8-108.8,38.6l-5.6,7.2c1.5,1.2,37,27.5,120.1-38.7c40.1-31.9,72.2-22,89-2c15.5,18.5,19.7,49.4-0.5,67.1
	c-25,22-49.9,13.6-76.3,4.6c-10.6-3.6-21.6-7.3-32.6-9c-39.5-6-64.1,17.6-65.1,18.6l6.4,6.5c7.9-6.6,17-11.5,27-14.3
	c9.9-2.8,20.3-3.4,30.5-1.8c10.2,1.5,20.8,5.1,31.1,8.6C546.5,429.1,564.2,435.1,582,432.6z"/>
<path class="st8" d="M525.5,517.4c0,0,22.6,20.3,39.8,10.4L525.5,517.4z"/>
<radialGradient id="SVGID_00000134966208099245737630000014980539750047242650_" cx="-6204.7402" cy="4751.0605" r="1.0001" gradientTransform="matrix(-46.0951 24.8788 24.8788 46.0951 -403939.875 -64301.1602)" gradientUnits="userSpaceOnUse">
	<stop  offset="0" style="stop-color:#F4DBEE"/>
	<stop  offset="1" style="stop-color:#6BA186"/>
</radialGradient>
<path style="fill-rule:evenodd;clip-rule:evenodd;fill:url(#SVGID_00000134966208099245737630000014980539750047242650_);" d="
	M212.8,349.5c9,16.7,52.1,32.4,74,26.1c1-0.3,1.9-0.6,2.9-1c12.9-5.5,20.8-20.7,24.7-30.7c1.2-2.9,2.2-5.9,3-9l-5.6-44.7
	c0,0-0.6,0.2-1.5,0.6c-5.7,2.3-11.2,5.4-16.2,9c-8.3,6.2-38.4,16.8-54.9,15.5s-23-5.6-26.8-4.5c-3.8,1.1-5.9,8-5.9,8
	S203.3,331.9,212.8,349.5z"/>
<path class="st10" d="M206.4,318.8c0,0,6.4-3.5,9.7,0.4c3.3,3.8,10.5,28.9-3.4,30.3C198.9,350.9,206.4,318.8,206.4,318.8
	L206.4,318.8z"/>
<path class="st11" d="M210.2,319.8c0,0,4.1,13.4-2.1,26.1C208.1,345.9,199,330,210.2,319.8z"/>
<path class="st12" d="M177.8,323.3c5,7.3,12.1,12.9,20.2,16.3c3.6,1.6,7.3,2.8,11.2,3.5c2.6-5.5,3.3-11.8,1.9-17.8
	c0,0-0.9-1.6-2.5-3.9c-3.5-5-9.6-13.5-14.5-16l0.6,6.4c0,0-6.4-8.2-20.1-5.7C174.7,306,168.2,308.7,177.8,323.3z"/>
<linearGradient id="SVGID_00000127043909964012745700000002327845351552362921_" gradientUnits="userSpaceOnUse" x1="292.0764" y1="275.272" x2="250.6164" y2="269.321" gradientTransform="matrix(1 0 0 -1 0 616)">
	<stop  offset="5.327789e-09" style="stop-color:#6D8586"/>
	<stop  offset="1" style="stop-color:#14AD86"/>
</linearGradient>
<path style="fill:url(#SVGID_00000127043909964012745700000002327845351552362921_);" d="M256.8,313.6c0,0,9.6,10.2,13.8,33.9
	c4.2,23.7-11.8,27.6-11.8,27.6s10.1,2.4,17,1.9c0,0,37.2-15-4.5-67.2L256.8,313.6z"/>
<linearGradient id="SVGID_00000158712872357160554850000008456436650113844890_" gradientUnits="userSpaceOnUse" x1="329.0333" y1="299.3299" x2="274.3602" y2="269.8211" gradientTransform="matrix(1 0 0 -1 0 616)">
	<stop  offset="0" style="stop-color:#14AD86"/>
	<stop  offset="1" style="stop-color:#FFFFFF"/>
</linearGradient>
<path style="fill-rule:evenodd;clip-rule:evenodd;fill:url(#SVGID_00000158712872357160554850000008456436650113844890_);" d="
	M314.4,343.9c1.1,3.4,2.4,6.9,3.7,10.6l10.2-26.3l-14-38.7l-4,0.8c0,0.1-0.1,0.3-0.1,0.4c-5.7,2.3-11.2,5.4-16.2,9
	c0,0,34.1,25.2-4.4,74.7C302.5,369,310.5,353.8,314.4,343.9z"/>
<path class="st15" d="M364.6,554.8c0,0,5.8-15.6,43.5-17.2C408.1,537.6,396.1,557.9,364.6,554.8z"/>
<path class="st15" d="M528.8,477.2c0,0-24,3.4-32.5,32.2c0,0,11,2.8,22.9-6.7C531.2,493.3,528.8,477.2,528.8,477.2z"/>
<radialGradient id="SVGID_00000124880129272358193730000014511166479091059593_" cx="-6200.6094" cy="4743.4414" r="1" gradientTransform="matrix(-49.1369 26.5206 26.5206 49.1369 -430142.7188 -68130.25)" gradientUnits="userSpaceOnUse">
	<stop  offset="0" style="stop-color:#F4F1FF"/>
	<stop  offset="1" style="stop-color:#5F9386"/>
</radialGradient>
<path style="fill-rule:evenodd;clip-rule:evenodd;fill:url(#SVGID_00000124880129272358193730000014511166479091059593_);" d="
	M392.3,559.9l16.4-8.9c0,0-0.9-4.4-2.1-11.5c-3-18-7.9-52.8-4.9-75.2l-68.9-29.8c0,0,0.3,4.3,0.9,11.1c1.8,19.7,0.2,60,6.7,75
	C349.1,540.7,392.3,559.9,392.3,559.9z"/>
<path class="st17" d="M332.8,434.4c18.3,16.8,41.4,27.5,66,30.6l2.9-0.8l15.3-4.2c0,0,0-0.1,0-0.1l0-0.3c0-0.1,0-0.2,0-0.2
	c0-0.1,0-0.2,0-0.3c-0.8-7-4.9-50.9,21.6-93.8c-3.8-3.3-7.4-6.9-10.7-10.7c-0.7-0.7-1.4-1.5-2.1-2.4c-3.4-3.8-7.5-8.7-12.4-14.8
	c-10.7-13.2-28.6-34.7-40.9-49.4c-3.7-4.4-6.9-8.3-9.3-11.1c-0.9-1.1-1.7-2-2.3-2.7l-2-2.4c0,0-29.7,19.9-48,16.6
	c0,0-0.2,0.6-0.5,1.8c0,0.2-0.1,0.3-0.1,0.4c-1.5,6.4-4.5,25.5,4.1,53.1c1.1,3.4,2.4,6.9,3.7,10.6c0.5,1.3,1,2.6,1.6,3.9
	c0.1,22.3,3.3,44.4,9.6,65.7C330.3,427.6,331.5,431,332.8,434.4z"/>
<radialGradient id="SVGID_00000151509526187355516150000003456146691966178190_" cx="424.7886" cy="314.7929" r="57.1762" gradientUnits="userSpaceOnUse">
	<stop  offset="0" style="stop-color:#F4DBEE"/>
	<stop  offset="1" style="stop-color:#6BA186"/>
</radialGradient>
<path style="fill-rule:evenodd;clip-rule:evenodd;fill:url(#SVGID_00000151509526187355516150000003456146691966178190_);" d="
	M375.7,315.9c0.7,1,1.5,1.9,2.4,2.9c12.9,15.5,31.5,29.9,49.7,35.7c11.2,3.5,22.2,3.9,31.8-0.7c21.3-10.3,28.2-30.1,29.8-35.9
	c0-0.2,0.1-0.4,0.1-0.5c0-0.2,0.1-0.3,0.1-0.5c0.1-0.4,0.1-0.6,0.1-0.6s6.5-6,2.5-13.8c-4-7.8-13.1-18.5-13.1-18.5l-4.4,0.4
	c0,0-3.5-5.1-9.5-4.2c-6,1-18.1,8.1-37.1,6.6c-16.7-1.2-42.5-7.6-51.2-10.7c-0.9-0.3-1.8-0.6-2.7-1.1c-3-1.5-6.2-2.5-9.5-2.9
	l-2.4,1.1l-1.6,0.7l-4.8,2.3C356,276.5,354.6,289.5,375.7,315.9z"/>
<radialGradient id="SVGID_00000037660998286976692250000012693017361654113675_" cx="-6189.9233" cy="4723.7412" r="0.9999" gradientTransform="matrix(-59.248 31.9778 31.9778 59.248 -517333.2812 -81485.1016)" gradientUnits="userSpaceOnUse">
	<stop  offset="0" style="stop-color:#F4F1FF"/>
	<stop  offset="1" style="stop-color:#5F9386"/>
</radialGradient>
<path style="fill-rule:evenodd;clip-rule:evenodd;fill:url(#SVGID_00000037660998286976692250000012693017361654113675_);" d="
	M417,460.1c0,0,39.9,26,49.6,33.2c9.7,7.2,36.5,16.1,49.6,16.1c0.3,0,0.6,0,1,0c12.4-0.5,16.2-9.2,16.2-9.2s-0.7-2.4-1.8-6.2
	c-1.4-5.1-3.6-12.6-6-20c-3.1-9.9-6.5-19.8-8.8-23.6c-3.9-6.5-44.9-49.8-66-71.9c-7.5-7.8-12.5-13-12.5-13
	c-30.8,31-22.9,86-21.6,93.8c0,0.1,0,0.2,0,0.3c0,0.1,0,0.2,0,0.2l0,0.3C417,460,417,460,417,460.1z"/>
<path class="st10" d="M353.3,277.6c0,0-14.4,14.5-20.6,17.4c-6.2,2.9-21.8-6.5-21.8-6.5S326.5,288.3,353.3,277.6z"/>
<path class="st10" d="M364.8,272.3c0,0,7.2,52.6,53.5,79.5c0,0-41.1-17.5-65.1-74.1L364.8,272.3z"/>
<path class="st10" d="M314.3,289.5c0,0-1.8,40.6,5.3,68.9c0,0-15.7-30.2-13.3-66l4.4-4L314.3,289.5z"/>
<path class="st11" d="M446.1,373.3c0,0-21.4,20.6-22.6,91l-6.4-4.2c0,0-12.9-66.4,21.4-94.8L446.1,373.3z"/>
<path class="st11" d="M329.3,424.2c0,0,36.5,38.3,72.4,40l-0.5,4.4c0,0-36,3.2-67.8-26.3L329.3,424.2z"/>
<path class="st10" d="M489.8,316.4c0,0,6.5-6,2.5-13.8c-4-7.8-13.1-18.5-13.1-18.5l-4.4,0.4C474.8,284.5,463.1,307.1,489.8,316.4z"
	/>
<path class="st11" d="M490.8,308.7c0,0-16.3-11.5-11.7-24.6C479.2,284.1,495.5,302.4,490.8,308.7z"/>
<path class="st12" d="M479.2,293.3c0,0-2.5-11.8,6.1-19.1l2.7,4.9c0,0,9.7-14.8,23.3-11c0,0,5.1,23.4-22.7,38.9
	C484,303.6,480.7,298.8,479.2,293.3z"/>
<linearGradient id="SVGID_00000127029865530794899620000004821889589716798851_" gradientUnits="userSpaceOnUse" x1="525.8776" y1="153.7992" x2="447.9536" y2="142.4362" gradientTransform="matrix(1 0 0 -1 0 616)">
	<stop  offset="5.327789e-09" style="stop-color:#6D8586"/>
	<stop  offset="1" style="stop-color:#14AD86"/>
</linearGradient>
<path style="fill:url(#SVGID_00000127029865530794899620000004821889589716798851_);" d="M504.8,435.7c0,0,8,15.3-9.7,34.4
	c-17.7,19.1-37.2,17-37.2,17s10.7,8.2,17.8,11.3c7.1,3.1,38.2-14.7,46-36.9c0,0-2.5-8.7-5.8-12.7
	C512.5,444.6,504.8,435.7,504.8,435.7z"/>
<linearGradient id="SVGID_00000129177644097400320340000004554047994147979393_" gradientUnits="userSpaceOnUse" x1="407.7672" y1="104.1659" x2="335.0702" y2="93.4709" gradientTransform="matrix(1 0 0 -1 0 616)">
	<stop  offset="5.327789e-09" style="stop-color:#6D8586"/>
	<stop  offset="1" style="stop-color:#14AD86"/>
</linearGradient>
<path style="fill:url(#SVGID_00000129177644097400320340000004554047994147979393_);" d="M401.1,491.7c0,0-11,16.4-26.6,26.7
	c-9.3,6.2-20.5,8.7-31.6,7.1c0,0,7.4,9.9,15.5,14.7c0,0,20-4.2,29.5-12.2c9.4-8,14.4-20.7,14.4-20.7L401.1,491.7z"/>
<linearGradient id="SVGID_00000167358172802148157560000008983268185214349451_" gradientUnits="userSpaceOnUse" x1="441.8904" y1="297.3392" x2="396.3623" y2="290.8082" gradientTransform="matrix(1 0 0 -1 0 616)">
	<stop  offset="5.327789e-09" style="stop-color:#6D8586"/>
	<stop  offset="1" style="stop-color:#14AD86"/>
</linearGradient>
<path style="fill:url(#SVGID_00000167358172802148157560000008983268185214349451_);" d="M423.2,286.5c0,0-22.2,41.5,21.7,70.7
	c-5.4,0.2-10.8-0.6-15.9-2.3c-12-3.8-48.6-49.7-19.2-70.6L423.2,286.5z"/>
<path class="st23" d="M401.4,464.5l0.5-0.6c-0.3-0.3-29.8-26.6-42-49.2c-10.6-19.6-12.9-30.9-16-46.4c-1.2-5.9-2.5-12.5-4.5-20.4
	c-4.3-16.9-7.3-34.1-9.1-51.4l-0.8,0.1c1.8,17.4,4.8,34.6,9.1,51.6c2,7.8,3.3,14.5,4.5,20.3c3.2,15.6,5.5,26.8,16.1,46.6
	C371.6,437.8,401.1,464.3,401.4,464.5z"/>
<linearGradient id="SVGID_00000039818845832811095380000017255539685961387681_" gradientUnits="userSpaceOnUse" x1="508.8489" y1="261.9157" x2="335.0106" y2="168.0899" gradientTransform="matrix(1 0 0 -1 0 616)">
	<stop  offset="0" style="stop-color:#FFFFFF"/>
	<stop  offset="1" style="stop-color:#77A39C"/>
</linearGradient>
<path style="fill-rule:evenodd;clip-rule:evenodd;fill:url(#SVGID_00000039818845832811095380000017255539685961387681_);" d="
	M405.3,540.2l1.3-0.7c-3-17.9-7.9-52.8-4.9-75.2l15.4-4.2c0,0,39.9,26,49.6,33.2c9.7,7.2,36.4,16.1,49.6,16.1c0.3,0,0.6,0,1,0
	l14.5-15.5c-1.4-5.1-3.6-12.5-5.9-20l-1.6-0.2c0,0-14,22.7-34,24.3c-20,1.7-60.2-39.9-61-48.5c-2.9-32.2,12.8-58.8,21.9-71.1
	l-12.5-13c-3.8-3.3-7.4-6.9-10.7-10.7c11.2,3.5,22.2,3.9,31.8-0.7c21.3-10.3,28.2-30.1,29.8-35.9c-1.9,6.1-10.8,28.8-43.6,35.8
	c-6.7,1.4-13.6,0.8-20-1.6c-28.5-10.2-49.9-51-52.5-60c-0.4-1.4-0.7-2.8-0.8-4.2c-0.6-8.1,4.5-11.7,4.5-11.7
	c-0.9-0.3-1.8-0.6-2.6-1.1c-3-1.5-6.2-2.5-9.5-2.9l-2.4,1.1c0.2,0.9,0.4,2.1,0.7,3.5c2.9,13.4,7.1,26.4,12.6,39
	c4.2,9.9,9.7,19.1,16.4,27.5c22.4,27.1,29,31.2,29,31.2s-6.5,51.3-18.2,65.5c-11.7,14.2-51.9,0.4-62.8-7.8
	c-5.2-3.9-8.6-6.5-10.9-8.3c1.1,3.4,2.2,6.9,3.5,10.3c0,0,0.3,4.3,0.9,11.1c10.9,8.7,47.9,39,56,52.3
	C399.3,513.4,405.3,540.2,405.3,540.2z"/>
<g class="st2">
	<path class="st6" d="M367.2,270.1c0,0-2.7,29.6-26.6,50.6c-23.9,21-39.1-26.6-39.1-26.6l7.3-3.8l3.9-2.1L367.2,270.1z"/>
</g>
<linearGradient id="SVGID_00000034792977763958723840000017792374936420113044_" gradientUnits="userSpaceOnUse" x1="351.4364" y1="336.8418" x2="256.534" y2="512.6746" gradientTransform="matrix(1 0 0 -1 0 616)">
	<stop  offset="0" style="stop-color:#14AD86"/>
	<stop  offset="1" style="stop-color:#FFFFFF"/>
</linearGradient>
<path style="fill-rule:evenodd;clip-rule:evenodd;fill:url(#SVGID_00000034792977763958723840000017792374936420113044_);" d="
	M224.5,267.9c0.2,0.3,0.5,0.6,0.7,0.9c3.3,3.8,9,7.7,16.2,11.1c0,0,0.4,0.2,1.2,0.5c15.8,6.9,33,10.2,50.3,9.6
	c30-1.1,72.9-11.7,97.4-36.5c24.5-24.8,25-85,14.2-102.1c-3.7-6-7.8-11.7-12.3-17.2c-14.4-17.7-37.9-38.4-71.8-40.3
	c-25.6-1.5-58.2,7.4-82.1,19.2c-6.8,3.3-13.3,7.2-19.3,11.7c-3.2,2.4-6.2,5.2-8.8,8.2l-0.9,1.2c-0.6,0.8-1.2,1.6-1.6,2.5
	C182.5,181.1,208.4,247.2,224.5,267.9z"/>
<linearGradient id="SVGID_00000183970755365478494200000004189647084059888315_" gradientUnits="userSpaceOnUse" x1="363.6447" y1="437.1231" x2="186.2527" y2="411.3922" gradientTransform="matrix(1 0 0 -1 0 616)">
	<stop  offset="0" style="stop-color:#000000"/>
	<stop  offset="7.164423e-02" style="stop-color:#02120E"/>
	<stop  offset="0.3063" style="stop-color:#084939"/>
	<stop  offset="0.5246" style="stop-color:#0D745A"/>
	<stop  offset="0.7198" style="stop-color:#119372"/>
	<stop  offset="0.8849" style="stop-color:#13A681"/>
	<stop  offset="1" style="stop-color:#14AD86"/>
</linearGradient>
<path style="fill:url(#SVGID_00000183970755365478494200000004189647084059888315_);" d="M227.9,262.9c0.2,0.3,0.4,0.5,0.7,0.8
	c7.4,5.4,32.1,18.8,68.1,4.6c44.2-17.5,44.4-57.8,44.4-57.8l8.7-2.8c-1.1-5.8-1.8-11.1-2.3-16.1c-2.6-27.6,3-42,2.1-45.8
	c-1-4.6-15.8-29.2-50.7-35.1c-23.1-3.9-43.7,1.4-57.9,7.3c-6.4,3.1-12.4,6.8-18.1,11c-3,2.2-5.8,4.8-8.3,7.7l-0.9,1.1
	c-0.6,0.7-1.1,1.5-1.5,2.3c-9.8,17.2-11.4,38-8.7,57.7C207.1,225.6,219.1,251.6,227.9,262.9z"/>
<linearGradient id="SVGID_00000046330317348792378990000013815141073983877295_" gradientUnits="userSpaceOnUse" x1="417.8953" y1="439.7732" x2="238.6493" y2="343.0292" gradientTransform="matrix(1 0 0 -1 0 616)">
	<stop  offset="0" style="stop-color:#FFFFFF"/>
	<stop  offset="1" style="stop-color:#5DB386"/>
</linearGradient>
<path style="fill-rule:evenodd;clip-rule:evenodd;fill:url(#SVGID_00000046330317348792378990000013815141073983877295_);" d="
	M242.7,280.5c15.8,6.9,33,10.2,50.3,9.6c30-1.1,72.9-11.7,97.4-36.5c24.5-24.8,25-85,14.2-102.1c-3.7-6-7.8-11.7-12.3-17.2
	c-4.6-3.3-9.8-4.8-15.6-2.7c-21.4,7.7-14.8,80.2-14.8,80.2l-10.9,1c0,0,0.2,42.2-41,63.4C273.9,294.8,248.4,282.8,242.7,280.5z"/>
<linearGradient id="SVGID_00000049180329352079047340000015259171228176814503_" gradientUnits="userSpaceOnUse" x1="398.3173" y1="373.9526" x2="347.9856" y2="467.2081" gradientTransform="matrix(1 0 0 -1 0 616)">
	<stop  offset="0" style="stop-color:#14AD86"/>
	<stop  offset="1" style="stop-color:#57C786"/>
</linearGradient>
<path style="fill-rule:evenodd;clip-rule:evenodd;fill:url(#SVGID_00000049180329352079047340000015259171228176814503_);" d="
	M400.4,238.9c-9.1,11.1-28.9,10.5-37.2-25.8c-8.3-36.3,6.3-75.4,6.3-75.4c-29.8,8.4-15.2,71.3-15.2,71.3c1,2.6,2,5,3,7.3l0.1,0.2
	C378.9,264.5,398.8,241.1,400.4,238.9z"/>
<path class="st29" d="M406.9,156.5c-5.2-12-14.4-19.2-21.5-17.8s-20.9,36.6-10.8,72.1c10.1,35.6,31.2,20.1,33.5,5.5l1.5-7.9
	c0,0-13.8,25.8-26.6,5.1c-14.6-23.5,0.8-59.2,12.3-56.7c11.5,2.5,15.7,22.9,15.7,22.9S410.4,164.5,406.9,156.5z"/>
<path class="st12" d="M413.5,554.5l-3.4-4.3l-1.9-12.7c0,0-24.4,16.4-43.6,17.2c7.8,5,16.8,7.7,26.1,8c0,0-13.8,9.4-10.5,25.1
	L413.5,554.5z"/>
<path class="st12" d="M496.4,509.3l26.6,3.3l2.6,4.8c0,0,17.7,14.3,39.8,10.3c0,0-6.5-18.1-29.2-24l-7.3-26.6
	c-1.2,7.8-4.5,15.2-9.4,21.5C511.6,508.5,497.6,509.3,496.4,509.3z"/>
<path class="st30" d="M413.5,554.5l2.9,1.8l-34.3,33.8l-1.9-2.2L413.5,554.5z"/>
<linearGradient id="SVGID_00000148659625521179515910000007166591689756399802_" gradientUnits="userSpaceOnUse" x1="411.0028" y1="73.2159" x2="370.1008" y2="51.1399" gradientTransform="matrix(1 0 0 -1 0 616)">
	<stop  offset="0" style="stop-color:#FFFFFF"/>
	<stop  offset="1" style="stop-color:#14AD86"/>
</linearGradient>
<path style="fill-rule:evenodd;clip-rule:evenodd;fill:url(#SVGID_00000148659625521179515910000007166591689756399802_);" d="
	M364.6,554.8c7.8,5,16.8,7.7,26.1,8c0,0,15.5-7.3,22.8-8.3l-3.4-4.3l-1.9-12.7C408.2,537.6,383.8,554,364.6,554.8z"/>
<linearGradient id="SVGID_00000008869565906845061400000007631226616861413522_" gradientUnits="userSpaceOnUse" x1="535.6619" y1="126.1478" x2="497.1481" y2="105.3601" gradientTransform="matrix(1 0 0 -1 0 616)">
	<stop  offset="0" style="stop-color:#FFFFFF"/>
	<stop  offset="1" style="stop-color:#14AD86"/>
</linearGradient>
<path style="fill-rule:evenodd;clip-rule:evenodd;fill:url(#SVGID_00000008869565906845061400000007631226616861413522_);" d="
	M496.4,509.3l26.6,3.3c5-1.9,9.5-4.9,13.2-8.8l-7.3-26.6c-1.2,7.8-4.5,15.2-9.4,21.5C511.6,508.5,497.6,509.3,496.4,509.3z"/>
<path class="st33" d="M333.9,148c0,0-1.9-10.8-3.6-13.8c-5.2-3.1-11-5-17-5.9l-3.2,20.1C310.1,148.4,328.6,147.2,333.9,148z"/>
<linearGradient id="SVGID_00000034061019485532700050000002729993948829385102_" gradientUnits="userSpaceOnUse" x1="358.319" y1="408.2523" x2="191.2251" y2="383.7703" gradientTransform="matrix(1 0 0 -1 0 616)">
	<stop  offset="1.065558e-08" style="stop-color:#14AD86"/>
	<stop  offset="0.1162" style="stop-color:#13A681"/>
	<stop  offset="0.2794" style="stop-color:#119473"/>
	<stop  offset="0.4706" style="stop-color:#0E765B"/>
	<stop  offset="0.683" style="stop-color:#094C3B"/>
	<stop  offset="0.9102" style="stop-color:#031712"/>
	<stop  offset="1" style="stop-color:#000000"/>
	<stop  offset="1" style="stop-color:#AA367C"/>
</linearGradient>
<path style="fill:url(#SVGID_00000034061019485532700050000002729993948829385102_);" d="M228,263.6c0.2,0.3,0.4,0.5,0.7,0.8
	c7.4,5.4,32.1,18.8,68,4.6c44.2-17.5,44.3-57.7,44.3-57.7l8.7-2.8c-1.1-5.8-1.8-11.1-2.3-16c0,0-86.1-61.2-143.8,6.1
	C207.2,226.3,219.2,252.2,228,263.6z"/>
<path class="st33" d="M334.4,219c0,0-0.9,9.6-4.2,15.8l-5.8-2.2c0,0,2.7-8.9,3.7-14.2L334.4,219z"/>
<linearGradient id="SVGID_00000017475404320826852170000014888665356508294288_" gradientUnits="userSpaceOnUse" x1="508.6453" y1="330.0904" x2="482.088" y2="315.7563" gradientTransform="matrix(1 0 0 -1 0 616)">
	<stop  offset="5.327789e-09" style="stop-color:#14AD86"/>
	<stop  offset="1" style="stop-color:#FFFFFF"/>
</linearGradient>
<path style="fill-rule:evenodd;clip-rule:evenodd;fill:url(#SVGID_00000017475404320826852170000014888665356508294288_);" d="
	M508.8,286.1c0,0-7.6,11.1-16.8,12.9c-9.2,1.8-13-7.4-13-7.4s0.1,8,9.6,15.4C488.6,307,504.3,298.6,508.8,286.1z"/>
<linearGradient id="SVGID_00000034795767706477727290000008147898663809546423_" gradientUnits="userSpaceOnUse" x1="213.6258" y1="286.3384" x2="197.4923" y2="277.6307" gradientTransform="matrix(1 0 0 -1 0 616)">
	<stop  offset="5.327789e-09" style="stop-color:#14AD86"/>
	<stop  offset="1" style="stop-color:#FFFFFF"/>
</linearGradient>
<path style="fill-rule:evenodd;clip-rule:evenodd;fill:url(#SVGID_00000034795767706477727290000008147898663809546423_);" d="
	M198.1,339.5c3.6,1.6,7.3,2.8,11.2,3.5c2.6-5.6,3.3-11.8,1.9-17.8c0,0-0.9-1.6-2.5-3.9C208.7,321.3,210.5,331.3,198.1,339.5z"/>
<path class="st10" d="M347.9,335.2c0.9,1.7,2.2,3.2,3.7,4.5c1.5,1.2,3.3,2.2,5.1,2.7c1.9,0.6,3.8,0.7,5.8,0.5
	c1.9-0.2,3.8-0.8,5.5-1.7c1.7-0.9,3.2-2.2,4.5-3.7c1.2-1.5,2.2-3.3,2.7-5.1c0.6-1.9,0.7-3.8,0.5-5.8c-0.2-1.9-0.8-3.8-1.7-5.5
	c-0.9-1.7-2.2-3.2-3.7-4.5c-1.5-1.2-3.3-2.2-5.1-2.7c-1.9-0.6-3.8-0.7-5.8-0.5c-1.9,0.2-3.8,0.8-5.5,1.7c-1.7,0.9-3.2,2.2-4.5,3.7
	c-1.2,1.5-2.2,3.3-2.7,5.1c-0.6,1.9-0.7,3.8-0.5,5.8C346.4,331.5,347,333.4,347.9,335.2z"/>
<linearGradient id="SVGID_00000121273919422230330440000016679160287185036697_" gradientUnits="userSpaceOnUse" x1="371.302" y1="289.421" x2="349.568" y2="286.263" gradientTransform="matrix(1 0 0 -1 0 616)">
	<stop  offset="0" style="stop-color:#000000"/>
	<stop  offset="1" style="stop-color:#14AD86"/>
</linearGradient>
<path style="fill-rule:evenodd;clip-rule:evenodd;fill:url(#SVGID_00000121273919422230330440000016679160287185036697_);" d="
	M352.8,332.5c1.2,2.2,3.2,3.8,5.5,4.5c2.4,0.7,4.9,0.4,7.1-0.7c1.1-0.6,2-1.4,2.8-2.3c0.8-1,1.3-2,1.7-3.2c0.3-1.2,0.5-2.4,0.3-3.6
	c-0.1-1.2-0.5-2.4-1.1-3.5c-1.2-2.2-3.2-3.8-5.5-4.5c-2.4-0.7-4.9-0.4-7.1,0.7c-2.2,1.2-3.8,3.2-4.5,5.5
	C351.3,327.8,351.6,330.4,352.8,332.5z"/>
<path class="st23" d="M371.2,487.1c10-1.5,20-3.7,29.7-6.5l-0.2-0.7c-0.5,0.2-48.9,14.6-65.2,3.5L335,484
	C342.9,489.4,357.7,489,371.2,487.1z"/>
<path class="st23" d="M437.5,474.8l0.8-0.1c-1.8-8.9-2.3-17.9-1.3-26.9c2.6-22.9,27.8-54.4,28.1-54.8l-0.6-0.5
	c-0.2,0.3-25.6,32-28.2,55.1C435.2,456.8,435.7,465.9,437.5,474.8z"/>
<path class="st23" d="M477.8,339.6l0.6-0.5c-31.8-40.5-13-58.3-12.9-58.4l-0.5-0.6c-0.2,0.2-5,4.6-5.9,14.2
	C458.3,303.1,461,318.1,477.8,339.6z"/>
<path class="st23" d="M241.5,369.9c14.5-29.1-17.6-57.1-17.9-57.4l-0.5,0.6c0.3,0.3,32,27.9,17.7,56.5L241.5,369.9z"/>
<path class="st33" d="M378.1,368.8c1.7,2.9,3.7,5.7,6.1,8.1l5.8-4c-1.7-3-4.3-5.5-7.4-7.1L378.1,368.8z"/>
<path class="st33" d="M452.5,287.3c-2.2,1.1-4.7,1.6-7.2,1.5l-2.1,3.6c0,0,5.8,2.3,9.1-1.1L452.5,287.3z"/>
<path class="st33" d="M491.6,441.2c2.9,1.8,5.4,4.2,7.2,7.2l-3.7,4.4l-6.5-7.4L491.6,441.2z"/>
<path class="st33" d="M213.4,311c2.4,0.8,4.5,2.4,6,4.5l4.9,0.2c-1-1.1-2.2-2.1-3.4-3C218.9,311.6,213.4,311,213.4,311z"/>
<path class="st33" d="M343.9,496.8c0,0-1,12.1,1,17.5l-5,0.6c-1.9-5.4-2.5-11.3-1.7-17L343.9,496.8z"/>
<path class="st33" d="M317,107.3c0,0-29.6-6.3-47.4-3.1C269.5,104.2,331.9,86.7,317,107.3z"/>
<path class="st33" d="M362.7,164.9l-11-1.3l-0.9,12l10.5,0.3L362.7,164.9z"/>
</svg>
