<svg id="Layer_1" data-name="Layer 1" xmlns="http://www.w3.org/2000/svg" xmlns:xlink="http://www.w3.org/1999/xlink" viewBox="0 0 204 204.01"><defs><style>.cls-1{fill:url(#linear-gradient);}.cls-2{fill:#fff;}</style><linearGradient id="linear-gradient" x1="-12.47" y1="8535.6" x2="228.09" y2="8536.48" gradientTransform="translate(0 -8434)" gradientUnits="userSpaceOnUse"><stop offset="0" stop-color="#537995"/><stop offset="1" stop-color="#14ad86"/></linearGradient></defs><path class="cls-1" d="M187.6,69.9c5.5-2,11.6.7,13.1,6.3a102.13,102.13,0,1,1-25.9-45.6c4.1,4.2,3.3,10.8-1.3,14.5s-11.1,2.8-15.3-1.2a81.08,81.08,0,0,0-44-21.8,80.88,80.88,0,0,0-36.8,157A80.93,80.93,0,0,0,180.9,83.7C179.5,78,182.2,71.9,187.6,69.9Z" transform="translate(0.02 -0.01)"/><path class="cls-2" d="M109.5,102.7c0-6.8-3.9-12.9-10.9-12.9s-11,6-11,12.9,3.9,12.9,11,12.9S109.5,109.5,109.5,102.7Zm-6.7,0c0,3.3-1.3,6.6-4.2,6.6s-4.3-3.3-4.3-6.6,1.3-6.6,4.3-6.6S102.8,99.3,102.8,102.7ZM124.4,96a6.17,6.17,0,0,0-6.3-6.1,6.11,6.11,0,0,0-6.3,6.1,6.3,6.3,0,0,0,12.6,0Zm-4.3,0a2,2,0,0,1-2.1,2.1,2.1,2.1,0,1,1,2.1-2.1Zm17.8-5.7h-5.5L114,115h5.5Zm-10.4,18.9a6.3,6.3,0,1,0,6.3-6.1A6.17,6.17,0,0,0,127.5,109.2Zm4.3,0a2,2,0,0,1,2.1-2.1,2.05,2.05,0,0,1,2.1,2.1,2.1,2.1,0,1,1-4.2,0Z" transform="translate(0.02 -0.01)"/><path class="cls-2" d="M76.53,110.21a2.13,2.13,0,0,0,2.15-1.49,14.25,14.25,0,0,0,.58-4.79,4.75,4.75,0,0,1-2,1.61,6.54,6.54,0,0,1-2.84.6A7.4,7.4,0,0,1,69,104,8.24,8.24,0,0,1,66.91,98,9.21,9.21,0,0,1,68,93.43a7.39,7.39,0,0,1,3.1-3,10,10,0,0,1,4.7-1q5.35,0,7.48,3.24T85.38,102q0,6.9-2,10.3t-7,3.4a9.21,9.21,0,0,1-4.64-1.1,7.84,7.84,0,0,1-3-2.91,8.9,8.9,0,0,1-1.17-3.91h6.4A2.47,2.47,0,0,0,76.53,110.21ZM78,100.09a2.64,2.64,0,0,0,.7-1.94A2.82,2.82,0,0,0,78,96a2.75,2.75,0,0,0-2-.7,2.68,2.68,0,0,0-2,.72,2.78,2.78,0,0,0-.72,2,2.51,2.51,0,0,0,2.77,2.7A2.53,2.53,0,0,0,78,100.09Z" transform="translate(0.02 -0.01)"/></svg>