<svg id="Layer_1" data-name="Layer 1" xmlns="http://www.w3.org/2000/svg" viewBox="0 0 7181.69 3742.1"><path d="M6307,3191.6Q6021,2925.28,5735,2659c-257.08-192.28-505.32-286.68-661.67-300.76-39.62-3.57-165.5-10.29-285.08,5.45-23.83,3.14-73.71,10.63-131.72,21.61-42.42,8-78,15.82-104.28,21.86a1566.39,1566.39,0,0,0-301.65,134c-78.16,45.12-241.6,148.63-401.66,331.81-63.18,72.3-164.89,190.62-244.49,375.46-82.45,191.46-97.65,353.23-104.78,436.59-4.29,50.1-16.31,220,26.19,436.59,24.78,126.32,57,290.5,170.27,462.79,50.95,77.49,99.46,127.33,196.47,227,100.61,103.39,180.59,185.58,292.51,262,54.56,37.23,253,166.07,545.74,209.56,239.2,35.53,424.22-3.33,528.27-26.2,263.56-57.91,440.86-167.2,480.25-192.09,118.83-75.12,197.56-152.51,301.25-253.23a3075.19,3075.19,0,0,0,254.74-279.82c263.67-326.44,395.5-489.66,581.58-725.37,263.55-333.85,49-49,648.08-763,96.32-114.8,183.19-217.63,336.17-305.62,194.63-111.93,373.83-131.21,493.35-144.07,91-9.79,215.64-22.22,375.47,8.73,49.2,9.53,219.79,46,406,165.9,36.13,23.27,142.91,94.75,253.22,218.3,41.26,46.22,124.09,145.73,196.46,292.51,38.6,78.3,109,224.55,126.61,427.86,11.93,137.82-5.44,243.87-17.46,314.35-30.24,177.26-87.18,303.11-104.78,340.54-50.37,107.06-103.09,179.81-144.08,235.75-68.39,93.36-135.78,185.35-248.85,270.69-136.06,102.68-265.06,140.48-366.74,170.27-77.11,22.59-221.85,63.7-414.76,56.75-96.18-3.46-291.64-12.68-493.34-126.6-72.35-40.87-131.19-92.73-248.86-196.47-135.14-119.14-238.21-232.19-296.88-296.88-49.14-54.18-89.12-100.95-117.88-135.34l235.76-262a2892.27,2892.27,0,0,0,240.12,253.22c166.31,155.49,265.27,248,427.86,310,186,70.89,345.54,60,384.2,56.76,68.4-5.81,256.57-30.27,436.59-165.9,198.79-149.78,346.45-404.09,340.54-694.18-7.37-361.72-249.47-581.66-301.25-628.69-57.67-52.39-215-191.4-462.78-222.66-249.78-31.52-438.66,65.78-497.23,97-158.34,84.37-215.27,179.27-452.48,473-131,162.22-269.37,318.38-403.72,477.85-415.48,493.2-357.11,420.25-628.69,729.11-181.34,206.24-331.83,373.67-432.22,484.61a1647,1647,0,0,1-392.93,279.42C5504,5653.85,5288,5683.73,5180.58,5697.62c-224.91,29.1-407.53,11-510.81-4.37-164.55-24.49-286.59-65.69-362.37-91.68-112.79-38.68-223.87-76.78-353.64-157.17-160.43-99.39-259.29-207.57-344.9-301.25C3553.8,5082.91,3458,4977,3364.37,4820.07c-62.07-104-184.15-332.5-235.76-650.51-45.89-282.73-14.17-501.26,8.73-650.52,25.68-167.35,56-354.39,170.27-567.57,77.74-145.07,163.61-245,227-318.71,67.4-78.39,169.15-195.21,331.81-310,114-80.42,205.29-122.73,336.18-183.36,179.54-83.19,287.84-133.37,445.32-157.18,108.31-16.37,186.37-12.17,331.8-4.36,148.3,8,284.4,15.27,458.42,65.49,81.38,23.47,236.87,75.33,410.4,183.36,131.09,81.62,214,158.87,318.71,257.59,109.15,102.88,254,252.57,406,454Z" transform="translate(-3105.17 -1970.99)"/><path d="M7085.05,4492.49,7657,5025.13c257.08,192.27,505.33,286.67,661.67,300.76,39.62,3.57,165.51,10.28,285.08-5.46,23.83-3.13,73.72-10.62,131.72-21.61,42.42-8,78-15.81,104.28-21.85a1567,1567,0,0,0,301.65-134c78.16-45.13,241.61-148.64,401.66-331.81,63.18-72.31,164.89-190.62,244.49-375.47,82.45-191.46,97.65-353.22,104.78-436.59,4.29-50.1,16.31-220-26.19-436.59-24.78-126.32-57-290.49-170.27-462.78-51-77.49-99.45-127.33-196.47-227-100.61-103.39-180.59-185.58-292.51-261.95-54.56-37.23-253-166.08-545.74-209.56-239.2-35.54-424.22,3.32-528.27,26.19-263.56,57.92-440.86,167.2-480.25,192.1-118.83,75.11-197.56,152.51-301.25,253.22a3074.86,3074.86,0,0,0-254.74,279.83C6833,3479,6701.12,3642.22,6515,3877.94c-263.55,333.85-49,49-648.08,763-96.32,114.8-183.19,217.62-336.17,305.61-194.62,111.94-373.83,131.22-493.35,144.08-91,9.78-215.64,22.21-375.46-8.74-49.21-9.53-219.8-46-406-165.9-36.14-23.26-142.91-94.74-253.22-218.3-41.27-46.22-124.1-145.73-196.47-292.51-38.6-78.29-109-224.54-126.61-427.86-11.93-137.82,5.44-243.86,17.46-314.34,30.24-177.27,87.18-303.11,104.79-340.54,50.36-107.06,103.08-179.82,144.07-235.76,68.39-93.35,135.79-185.35,248.85-270.68,136.07-102.69,265.06-140.48,366.74-170.28,77.12-22.59,221.85-63.7,414.76-56.75,96.18,3.47,291.64,12.69,493.35,126.61,72.34,40.86,131.18,92.73,248.85,196.47,135.14,119.13,238.22,232.18,296.88,296.88,49.14,54.18,89.12,100.94,117.88,135.34l-235.76,261.95A2895.13,2895.13,0,0,0,5657.4,3353c-166.31-155.49-265.26-248-427.86-310-186-70.88-345.54-60-384.2-56.75-68.39,5.81-256.57,30.26-436.59,165.9-198.79,149.77-346.45,404.09-340.54,694.18,7.37,361.71,249.47,581.65,301.25,628.69,57.67,52.39,215,191.4,462.78,222.65,249.78,31.52,438.66-65.77,497.23-97,158.34-84.37,215.27-179.27,452.48-473,131-162.23,269.37-318.38,403.72-477.86,415.48-493.19,357.11-420.25,628.69-729.1,181.34-206.24,331.84-373.67,432.22-484.62a1647,1647,0,0,1,392.93-279.41c248.55-126.5,464.56-156.38,571.93-170.27,224.91-29.11,407.53-11,510.82,4.36,164.54,24.49,286.59,65.7,362.36,91.69,112.79,38.68,223.87,76.77,353.64,157.17,160.43,99.38,259.3,207.56,344.91,301.24,55,60.25,150.84,166.18,244.49,323.08,62.07,104,184.14,332.51,235.75,650.52,45.89,282.72,14.18,501.25-8.73,650.52-25.67,167.34-56,354.39-170.27,567.56-77.73,145.08-163.61,245-227,318.71-67.4,78.39-169.14,195.21-331.81,310-114,80.43-205.29,122.73-336.17,183.37-179.55,83.19-287.85,133.37-445.33,157.17-108.31,16.37-186.37,12.18-331.8,4.37-148.3-8-284.4-15.28-458.42-65.49-81.38-23.48-236.87-75.33-410.4-183.37-131.09-81.61-214-158.86-318.71-257.59-109.15-102.88-254-252.57-406-454.05Q6951.89,4619.1,7085.05,4492.49Z" transform="translate(-3105.17 -1970.99)"/></svg>