<?xml version="1.0" encoding="iso-8859-1"?>
<!-- Uploaded to: SVG Repo, www.svgrepo.com, Generator: SVG Repo Mixer Tools -->
<svg version="1.1" id="Layer_1" xmlns="http://www.w3.org/2000/svg" xmlns:xlink="http://www.w3.org/1999/xlink" 
	 viewBox="0 0 512 512" xml:space="preserve">
<path style="fill:#41BBBE;" d="M465.966,151.912H46.034C20.715,151.912,0,172.627,0,197.946v268.02C0,491.285,20.715,512,46.034,512
	h419.932C491.285,512,512,491.285,512,465.966v-268.02C512,172.627,491.285,151.912,465.966,151.912z"/>
<g>
	<rect x="67.516" y="185.67" style="fill:#086063;" width="343.209" height="292.571"/>
	<circle style="fill:#086063;" cx="33.758" cy="331.956" r="8.44"/>
	<circle style="fill:#086063;" cx="461.363" cy="331.956" r="16.879"/>
</g>
<polygon style="fill:#F7AD3F;" points="168.791,0 168.791,118.154 239.121,118.154 239.121,185.67 306.637,118.154 512,118.154 
	512,0 "/>
<path style="fill:#FFFFFF;" d="M119.119,347.87l15.914-15.914l-15.914-15.914c-8.788-8.788-8.788-23.037,0-31.825
	c8.788-8.788,23.037-8.788,31.825,0l19.607,19.607h137.139l19.607-19.607c8.788-8.788,23.037-8.788,31.825,0
	c8.788,8.788,8.788,23.037,0,31.825l-15.914,15.914l15.914,15.914c8.788,8.788,8.788,23.037,0,31.825s-23.037,8.788-31.825,0
	l-19.607-19.607H170.551l-19.607,19.607c-8.788,8.788-23.038,8.788-31.825,0C110.33,370.907,110.33,356.658,119.119,347.87z"/>
</svg>